<svg id="Calque_1" data-name="Calque 1" xmlns="http://www.w3.org/2000/svg" viewBox="0 0 282.49 282.49"><defs><style>.cls-1{fill:#fff;stroke:#1d1d1b;}.cls-1,.cls-3{stroke-miterlimit:10;}.cls-2{fill:#fdc608;}.cls-3{fill:none;stroke:#010101;stroke-width:3px;}</style></defs><title>Sans titre - 1</title><circle class="cls-1" cx="141.24" cy="141.24" r="140.74"/><path class="cls-2" d="M373.2,340.19Z" transform="translate(-276.49 -152.99)"/><path class="cls-2" d="M498.3,200a175.28,175.28,0,0,0-73.43,1c-22.57,5.22-46.13,15.21-62.71,31.83-15.7,15.75-24.44,37.29-28.57,58.84-2.26,11.76-4.39,24.23-3,36.22,1.63,14.24,7.59,25.67,16.36,36.79,15.44,19.6,36.26,36.53,60.84,42.69,9.11,2.29,19.94-2.94,22.14-12.57,2.12-9.33-2.8-19.69-12.57-22.14-2.06-.51-4.1-1.08-6.1-1.76-1-.34-2-.74-3-1.09l.45.16-.5-.21a95.74,95.74,0,0,1-12.33-7.15c-.88-.6-1.73-1.24-2.6-1.86l.47.33c-.24-.17-.48-.35-.61-.46-1.64-1.37-3.27-2.75-4.86-4.19a142.7,142.7,0,0,1-10.13-10.3c-1.44-1.62-2.84-3.28-4.22-5-.16-.19-.51-.68-.75-1l.5.72c-.63-.91-1.29-1.79-1.91-2.71-1.23-1.84-2.28-3.76-3.37-5.68-.15-.27-.44-1-.59-1.33-.33-.94-.63-1.89-.88-2.85-.14-.52-.51-2.32-.61-2.56-.07-.76-.11-1.52-.15-2.26a70.47,70.47,0,0,1,.09-7.12c.14-2.38.41-4.74.67-7.11-.07.71-.5,3.3,0-.13.2-1.32.41-2.64.63-4a138.7,138.7,0,0,1,6.6-25.54l1-2.58.53-1.15q1.35-2.85,2.89-5.59c1-1.82,2.13-3.6,3.3-5.34.59-.86,1.21-1.71,1.81-2.56l0,0,.59-.62a81.92,81.92,0,0,1,8.58-8.29c.35-.25.89-.64,1.09-.77.92-.6,1.81-1.24,2.74-1.83,2.31-1.49,4.69-2.87,7.11-4.16q2.91-1.55,5.91-2.93c.72-.34,1.45-.66,2.17-1l1.42-.58c5-1.88,9.94-3.6,15-5A151.61,151.61,0,0,1,444,233.86l2.32-.37c.28,0,3.25-.34,3.38-.35q4-.37,7.92-.54a153.25,153.25,0,0,1,16.74.21c2.71.19,5.42.44,8.12.79l1.09.2c1.74.31,3.47.61,5.21.95,9.21,1.8,19.87-2.6,22.14-12.57C512.9,213.26,508.18,202,498.3,200Z" transform="translate(-276.49 -152.99)"/><path class="cls-2" d="M408.73,370c.83.33,1.92.68,0,0Z" transform="translate(-276.49 -152.99)"/><path class="cls-2" d="M393.77,361.11c.65.48,1.32.94,0,0Z" transform="translate(-276.49 -152.99)"/><rect class="cls-3" x="79.26" y="95.36" width="109.2" height="135.66"/><polygon class="cls-3" points="188.46 89.02 133.86 37.19 106.03 63.61 106.03 49.42 93.85 49.42 93.85 75.17 79.26 89.02 188.46 89.02"/><rect class="cls-3" x="122.1" y="181.59" width="24.34" height="47.84"/><rect class="cls-3" x="88.14" y="112.12" width="23.75" height="28.12"/><rect class="cls-3" x="121.99" y="112.12" width="23.75" height="28.12"/><rect class="cls-3" x="156.08" y="112.12" width="23.75" height="28.12"/><rect class="cls-3" x="88.14" y="153.94" width="23.75" height="17.72"/><rect class="cls-3" x="122.69" y="153.94" width="23.75" height="17.72"/><rect class="cls-3" x="156.08" y="153.94" width="23.75" height="17.72"/><line class="cls-3" x1="167.95" y1="231.02" x2="167.95" y2="213.69"/><rect class="cls-3" x="158.83" y="196.92" width="17.83" height="17.83"/></svg>