<svg id="Calque_1" data-name="Calque 1" xmlns="http://www.w3.org/2000/svg" viewBox="0 0 143.92 178.42"><defs><style>.cls-1{fill:#f3901d;}</style></defs><title>6</title><path class="cls-1" d="M233.3,119.25H89.38V64.1H233.3ZM93,115.62H229.66V67.73H93Z" transform="translate(-89.38 -64.1)"/><path class="cls-1" d="M118.48,141.24H89.38V122.75h29.1ZM93,137.61h21.84V126.38H93Z" transform="translate(-89.38 -64.1)"/><path class="cls-1" d="M156.75,141.24h-29.1V122.75h29.1Zm-25.46-3.63h21.83V126.38H131.29Z" transform="translate(-89.38 -64.1)"/><path class="cls-1" d="M195,141.24H165.92V122.75H195Zm-25.47-3.63h21.83V126.38H169.56Z" transform="translate(-89.38 -64.1)"/><path class="cls-1" d="M233.3,141.24H204.2V122.75h29.1Zm-25.47-3.63h21.83V126.38H207.83Z" transform="translate(-89.38 -64.1)"/><path class="cls-1" d="M118.48,163.23H89.38V144.74h29.1ZM93,159.6h21.84V148.37H93Z" transform="translate(-89.38 -64.1)"/><path class="cls-1" d="M156.75,163.23h-29.1V144.74h29.1Zm-25.46-3.63h21.83V148.37H131.29Z" transform="translate(-89.38 -64.1)"/><path class="cls-1" d="M195,163.23H165.92V144.74H195Zm-25.47-3.63h21.83V148.37H169.56Z" transform="translate(-89.38 -64.1)"/><path class="cls-1" d="M233.3,242.52H197.46v-38.3H125.22V242.1H89.38V187.93H233.3Zm-32.2-3.63h28.56V191.56H93v46.91h28.57V200.59H201.1Z" transform="translate(-89.38 -64.1)"/><path class="cls-1" d="M163.16,242.1H129.81V206.29h33.35Zm-29.71-3.63h26.07V209.92H133.45Z" transform="translate(-89.38 -64.1)"/><path class="cls-1" d="M193.38,242.1H159.52V206.29h33.86Zm-30.22-3.63h26.58V209.92H163.16Z" transform="translate(-89.38 -64.1)"/><path class="cls-1" d="M233.3,163.23H204.2V144.74h29.1Zm-25.47-3.63h21.83V148.37H207.83Z" transform="translate(-89.38 -64.1)"/><path class="cls-1" d="M118.48,185.22H89.38V166.73h29.1ZM93,181.58h21.84V170.36H93Z" transform="translate(-89.38 -64.1)"/><path class="cls-1" d="M156.75,185.22h-29.1V166.73h29.1Zm-25.46-3.64h21.83V170.36H131.29Z" transform="translate(-89.38 -64.1)"/><path class="cls-1" d="M195,185.22H165.92V166.73H195Zm-25.47-3.64h21.83V170.36H169.56Z" transform="translate(-89.38 -64.1)"/><path class="cls-1" d="M233.3,185.22H204.2V166.73h29.1Zm-25.47-3.64h21.83V170.36H207.83Z" transform="translate(-89.38 -64.1)"/><path class="cls-1" d="M170.72,112.16H152v-11h-11V82.5h11v-11h18.69v11h11v18.7h-11Zm-15.06-3.63h11.43v-11h11V86.14h-11v-11H155.66v11h-11V97.56h11Z" transform="translate(-89.38 -64.1)"/></svg>