<svg id="Calque_1" data-name="Calque 1" xmlns="http://www.w3.org/2000/svg" viewBox="0 0 195 172.68"><defs><style>.cls-1{fill:#f4e600;}</style></defs><title>10</title><path class="cls-1" d="M160.58,242.42H90a1.5,1.5,0,0,1-1.5-1.5V92.5A1.5,1.5,0,0,1,90,91h70.61a1.5,1.5,0,0,1,1.5,1.5V240.92A1.5,1.5,0,0,1,160.58,242.42Zm-69.11-3h67.61V94H91.47Z" transform="translate(-88.47 -69.74)"/><path class="cls-1" d="M282,242.42H211.35a1.5,1.5,0,0,1-1.5-1.5V92.5a1.5,1.5,0,0,1,1.5-1.5H282a1.5,1.5,0,0,1,1.5,1.5V240.92A1.5,1.5,0,0,1,282,242.42Zm-69.12-3h67.62V94H212.85Z" transform="translate(-88.47 -69.74)"/><path class="cls-1" d="M211.2,242.42H160.71a1.5,1.5,0,0,1-1.5-1.5V90.73h-3.53a1.5,1.5,0,0,1-.77-2.79l30.28-18a1.5,1.5,0,0,1,1.53,0l30.28,18a1.5,1.5,0,0,1-.76,2.79H212.7V240.92A1.5,1.5,0,0,1,211.2,242.42Zm-49-3H209.7V89.23a1.51,1.51,0,0,1,1.15-1.46L186,73,161.07,87.77a1.51,1.51,0,0,1,1.14,1.46Z" transform="translate(-88.47 -69.74)"/><path class="cls-1" d="M90,94a1.5,1.5,0,0,1-1.5-1.5V81.57a1.5,1.5,0,0,1,3,0V92.5A1.5,1.5,0,0,1,90,94Z" transform="translate(-88.47 -69.74)"/><path class="cls-1" d="M282,94a1.5,1.5,0,0,1-1.5-1.5V81.57a1.5,1.5,0,0,1,3,0V92.5A1.5,1.5,0,0,1,282,94Z" transform="translate(-88.47 -69.74)"/><path class="cls-1" d="M113.4,228.66h-7.14a1.5,1.5,0,0,1-1.5-1.5V181.34a1.5,1.5,0,0,1,1.5-1.5h7.14a1.5,1.5,0,0,1,1.5,1.5v45.82A1.5,1.5,0,0,1,113.4,228.66Zm-5.64-3h4.14V182.84h-4.14Z" transform="translate(-88.47 -69.74)"/><path class="cls-1" d="M140.76,228.66h-7.15a1.5,1.5,0,0,1-1.5-1.5V181.34a1.5,1.5,0,0,1,1.5-1.5h7.15a1.5,1.5,0,0,1,1.5,1.5v45.82A1.5,1.5,0,0,1,140.76,228.66Zm-5.65-3h4.15V182.84h-4.15Z" transform="translate(-88.47 -69.74)"/><path class="cls-1" d="M113.4,176h-7.14a1.5,1.5,0,0,1-1.5-1.5V128.7a1.5,1.5,0,0,1,1.5-1.5h7.14a1.5,1.5,0,0,1,1.5,1.5v45.82A1.5,1.5,0,0,1,113.4,176Zm-5.64-3h4.14V130.2h-4.14Z" transform="translate(-88.47 -69.74)"/><path class="cls-1" d="M140.76,176h-7.15a1.5,1.5,0,0,1-1.5-1.5V128.7a1.5,1.5,0,0,1,1.5-1.5h7.15a1.5,1.5,0,0,1,1.5,1.5v45.82A1.5,1.5,0,0,1,140.76,176Zm-5.65-3h4.15V130.2h-4.15Z" transform="translate(-88.47 -69.74)"/><path class="cls-1" d="M113.4,121.09h-7.14a1.5,1.5,0,0,1-1.5-1.5V100.78a1.5,1.5,0,0,1,1.5-1.5h7.14a1.5,1.5,0,0,1,1.5,1.5v18.81A1.5,1.5,0,0,1,113.4,121.09Zm-5.64-3h4.14V102.28h-4.14Z" transform="translate(-88.47 -69.74)"/><path class="cls-1" d="M140.76,121.09h-7.15a1.5,1.5,0,0,1-1.5-1.5V100.78a1.5,1.5,0,0,1,1.5-1.5h7.15a1.5,1.5,0,0,1,1.5,1.5v18.81A1.5,1.5,0,0,1,140.76,121.09Zm-5.65-3h4.15V102.28h-4.15Z" transform="translate(-88.47 -69.74)"/><path class="cls-1" d="M236.56,228.66h-7.15a1.5,1.5,0,0,1-1.5-1.5V181.34a1.5,1.5,0,0,1,1.5-1.5h7.15a1.5,1.5,0,0,1,1.5,1.5v45.82A1.5,1.5,0,0,1,236.56,228.66Zm-5.65-3h4.15V182.84h-4.15Z" transform="translate(-88.47 -69.74)"/><path class="cls-1" d="M263.91,228.66h-7.14a1.5,1.5,0,0,1-1.5-1.5V181.34a1.5,1.5,0,0,1,1.5-1.5h7.14a1.5,1.5,0,0,1,1.5,1.5v45.82A1.5,1.5,0,0,1,263.91,228.66Zm-5.64-3h4.14V182.84h-4.14Z" transform="translate(-88.47 -69.74)"/><path class="cls-1" d="M236.56,176h-7.15a1.5,1.5,0,0,1-1.5-1.5V128.7a1.5,1.5,0,0,1,1.5-1.5h7.15a1.5,1.5,0,0,1,1.5,1.5v45.82A1.5,1.5,0,0,1,236.56,176Zm-5.65-3h4.15V130.2h-4.15Z" transform="translate(-88.47 -69.74)"/><path class="cls-1" d="M263.91,176h-7.14a1.5,1.5,0,0,1-1.5-1.5V128.7a1.5,1.5,0,0,1,1.5-1.5h7.14a1.5,1.5,0,0,1,1.5,1.5v45.82A1.5,1.5,0,0,1,263.91,176Zm-5.64-3h4.14V130.2h-4.14Z" transform="translate(-88.47 -69.74)"/><path class="cls-1" d="M236.56,121.09h-7.15a1.5,1.5,0,0,1-1.5-1.5V100.78a1.5,1.5,0,0,1,1.5-1.5h7.15a1.5,1.5,0,0,1,1.5,1.5v18.81A1.5,1.5,0,0,1,236.56,121.09Zm-5.65-3h4.15V102.28h-4.15Z" transform="translate(-88.47 -69.74)"/><path class="cls-1" d="M263.91,121.09h-7.14a1.5,1.5,0,0,1-1.5-1.5V100.78a1.5,1.5,0,0,1,1.5-1.5h7.14a1.5,1.5,0,0,1,1.5,1.5v18.81A1.5,1.5,0,0,1,263.91,121.09Zm-5.64-3h4.14V102.28h-4.14Z" transform="translate(-88.47 -69.74)"/><path class="cls-1" d="M197.29,242.42h-22a1.5,1.5,0,0,1-1.5-1.5V204.25a1.5,1.5,0,0,1,1.5-1.5h22a1.5,1.5,0,0,1,1.5,1.5v36.67A1.5,1.5,0,0,1,197.29,242.42Zm-20.47-3h19V205.75h-19Z" transform="translate(-88.47 -69.74)"/><path class="cls-1" d="M180.23,198.4h-11.9a1.5,1.5,0,0,1-1.5-1.5V177.68a1.5,1.5,0,0,1,1.5-1.5h11.9a1.5,1.5,0,0,1,1.5,1.5V196.9A1.5,1.5,0,0,1,180.23,198.4Zm-10.4-3h8.9V179.18h-8.9Z" transform="translate(-88.47 -69.74)"/><path class="cls-1" d="M203.24,198.4h-11.9a1.5,1.5,0,0,1-1.5-1.5V177.68a1.5,1.5,0,0,1,1.5-1.5h11.9a1.5,1.5,0,0,1,1.5,1.5V196.9A1.5,1.5,0,0,1,203.24,198.4Zm-10.4-3h8.9V179.18h-8.9Z" transform="translate(-88.47 -69.74)"/><path class="cls-1" d="M180.23,171.83h-11.9a1.5,1.5,0,0,1-1.5-1.5V116.18a1.5,1.5,0,0,1,1.5-1.5h11.9a1.5,1.5,0,0,1,1.5,1.5v54.15A1.5,1.5,0,0,1,180.23,171.83Zm-10.4-3h8.9V117.68h-8.9Z" transform="translate(-88.47 -69.74)"/><path class="cls-1" d="M203.24,171.83h-11.9a1.5,1.5,0,0,1-1.5-1.5V116.18a1.5,1.5,0,0,1,1.5-1.5h11.9a1.5,1.5,0,0,1,1.5,1.5v54.15A1.5,1.5,0,0,1,203.24,171.83Zm-10.4-3h8.9V117.68h-8.9Z" transform="translate(-88.47 -69.74)"/><path class="cls-1" d="M186.45,105a10.79,10.79,0,1,1,10.78-10.79A10.8,10.8,0,0,1,186.45,105Zm0-18.57a7.79,7.79,0,1,0,7.78,7.78A7.79,7.79,0,0,0,186.45,86.45Z" transform="translate(-88.47 -69.74)"/></svg>