<svg id="Calque_1" data-name="Calque 1" xmlns="http://www.w3.org/2000/svg" viewBox="0 0 225.6 177.87"><defs><style>.cls-1{fill:#c61180;}</style></defs><title>11</title><path class="cls-1" d="M199,152.15c-1.73,0-1,.07,0,0Z" transform="translate(-59.26 -67.15)"/><path class="cls-1" d="M284.86,143.23H59.26V67.15h225.6Zm-222.6-3h219.6V70.15H62.26Z" transform="translate(-59.26 -67.15)"/><path class="cls-1" d="M102.67,161.38H59.26V146.12h43.41Zm-40.41-3H99.67v-9.26H62.26Z" transform="translate(-59.26 -67.15)"/><path class="cls-1" d="M163.4,161.38H120V146.12H163.4Zm-40.41-3H160.4v-9.26H123Z" transform="translate(-59.26 -67.15)"/><path class="cls-1" d="M224.13,161.38H180.72V146.12h43.41Zm-40.41-3h37.41v-9.26H183.72Z" transform="translate(-59.26 -67.15)"/><path class="cls-1" d="M284.86,161.38H241.45V146.12h43.41Zm-40.41-3h37.41v-9.26H244.45Z" transform="translate(-59.26 -67.15)"/><path class="cls-1" d="M284.86,245l-225.6-.35V163.59h225.6Zm-222.6-3.34,219.6.34V166.59H62.26Z" transform="translate(-59.26 -67.15)"/><path class="cls-1" d="M157,244.67H106.82V183.18H157Zm-47.14-3H154V186.18H109.82Z" transform="translate(-59.26 -67.15)"/><path class="cls-1" d="M91.66,244.67H70.27V209.51H91.66Zm-18.39-3H88.66V212.51H73.27Z" transform="translate(-59.26 -67.15)"/><path class="cls-1" d="M91.66,193.76H70.27V183.18H91.66Zm-18.39-3H88.66v-4.58H73.27Z" transform="translate(-59.26 -67.15)"/><path class="cls-1" d="M91.66,205.8H70.27V195.22H91.66Zm-18.39-3H88.66v-4.58H73.27Z" transform="translate(-59.26 -67.15)"/><path class="cls-1" d="M214.2,244.67h-51V183.18h51Zm-48-3h45V186.18h-45Z" transform="translate(-59.26 -67.15)"/><path class="cls-1" d="M272.08,244.67H221.13V183.18h50.95Zm-47.95-3h44.95V186.18H224.13Z" transform="translate(-59.26 -67.15)"/><path class="cls-1" d="M143.3,119.14a1.08,1.08,0,0,1-.32,0,6.88,6.88,0,0,1-4.86-5.18,6,6,0,0,1,3-6.16c.35-.2,1.4-.79,23.42-4.53a9.47,9.47,0,0,1,14-5.49,9.6,9.6,0,0,1,2.62,2.38l1.43,1.91-8.56,1.71.75,3.76,8.57-1.71-.56,2.29a9.45,9.45,0,0,1-16,4.28C147.89,118.46,144.29,119.14,143.3,119.14Zm.08-3ZM173.7,99.35a6.46,6.46,0,0,0-5.52,3.09,6.56,6.56,0,0,0-.87,2.34l-.17,1.06-1.06.18c-12.81,2.17-22.48,4-23.53,4.4a3.16,3.16,0,0,0-1.5,2.88,4.1,4.1,0,0,0,2.41,2.84c1.56-.13,10.89-2.9,23.42-6.94l1-.33.64.85a6.36,6.36,0,0,0,1.78,1.61,6.46,6.46,0,0,0,8.48-1.55L172.51,111l-1.92-9.65,6.2-1.24A6.49,6.49,0,0,0,173.7,99.35Z" transform="translate(-59.26 -67.15)"/><path class="cls-1" d="M179.69,138.78a3.81,3.81,0,0,1-3.68-2.9l-.73-3a27.3,27.3,0,0,1-6.27-1L167.07,135a3.79,3.79,0,0,1-5.21,1.26l-6.52-4a3.8,3.8,0,0,1-1.25-5.21l2-3.2.07-.13a27.6,27.6,0,0,1-3.25-4.47l-1-1.63,1.8-.56,9.43-3,1-.32.64.83a15.16,15.16,0,0,0,4,3.57,15,15,0,1,0-6.8-16l-.22,1-1,.17L150.94,105l-1.89.34.13-1.92a27.5,27.5,0,0,1,.92-5.34,2.2,2.2,0,0,1-.26-.15l-3.21-2a3.79,3.79,0,0,1-1.25-5.2l4-6.53a3.79,3.79,0,0,1,5.2-1.25l3.21,2,.25.17a27.38,27.38,0,0,1,4.86-3.57L162,78.22a3.79,3.79,0,0,1,2.63-4.66L172,71.5a3.79,3.79,0,0,1,4.66,2.63l1,3.62c0,.06,0,.12,0,.18a27.49,27.49,0,0,1,5.93.88l1.83-3a3.78,3.78,0,0,1,2.35-1.7,3.73,3.73,0,0,1,2.86.45l6.52,4a3.78,3.78,0,0,1,1.25,5.2l-1.74,2.85a27.43,27.43,0,0,1,3.67,4.91l3.52-.72a3.78,3.78,0,0,1,4.47,3l1.53,7.49a3.8,3.8,0,0,1-3,4.47l-2.82.57a27.24,27.24,0,0,1-1,6.42l2.89,1.77a3.75,3.75,0,0,1,1.71,2.34,3.82,3.82,0,0,1-.45,2.86l-4,6.52a3.8,3.8,0,0,1-5.21,1.26l-2.89-1.77a27.41,27.41,0,0,1-5.08,3.68l.71,2.95a3.79,3.79,0,0,1-2.79,4.57l-7.43,1.79A3.94,3.94,0,0,1,179.69,138.78Zm-13-10.89,1.88.65a24,24,0,0,0,8,1.36H178l0,1.46a.41.41,0,0,0,0,.16l.88,3.66a.76.76,0,0,0,.35.48.83.83,0,0,0,.59.1l7.44-1.8a.76.76,0,0,0,.48-.35.78.78,0,0,0,.1-.59l-.88-3.66s0-.09,0-.13l-.6-1.31,1.29-.65a24.45,24.45,0,0,0,6.35-4.62l1.18-1.19,1,1.3a1,1,0,0,0,.19.17l3.21,2a.8.8,0,0,0,1.08-.26l4-6.52a.82.82,0,0,0,.09-.6.75.75,0,0,0-.35-.48l-3.21-2A.85.85,0,0,0,201,115l-1.63-.35.52-1.59a24.27,24.27,0,0,0,1.21-8l0-1.45,1.57-.08,3.66-.75a.8.8,0,0,0,.62-.93l-1.53-7.49a.78.78,0,0,0-.34-.49.75.75,0,0,0-.59-.12l-3.68.75a.7.7,0,0,0-.28.12l-1.4,1-.78-1.5a24.2,24.2,0,0,0-4.67-6.25l-1.2-1.16,1.28-1.07a.7.7,0,0,0,.16-.19l2-3.2a.81.81,0,0,0-.27-1.09l-6.52-4a.77.77,0,0,0-1.08.26l-2,3.2a.94.94,0,0,0-.1.28l-.29,1.7L184,82.05a24.26,24.26,0,0,0-7.81-1.13l-2.06,0,.6-2a.9.9,0,0,0,0-.43l-1-3.62a.81.81,0,0,0-1-.55l-7.37,2.06a.75.75,0,0,0-.47.37.76.76,0,0,0-.07.59l1,3.63a.71.71,0,0,0,.13.26l1.15,1.44-1.64.83A24.54,24.54,0,0,0,159,88.38l-1.6,1.67-.87-2.15a.73.73,0,0,0-.31-.37l-3.2-2a.77.77,0,0,0-.6-.09.75.75,0,0,0-.48.35l-4,6.52a.77.77,0,0,0-.09.6.74.74,0,0,0,.35.48l3.2,2a.79.79,0,0,0,.48.11l2.3-.2-.75,2.18a24.76,24.76,0,0,0-1,4.24l6.92-1.2a17.59,17.59,0,0,1,2-4.49,18,18,0,1,1,1.83,21.24l-6.62,2.09a24.14,24.14,0,0,0,2.83,3.38l1.47,1.47-1.86.94a.7.7,0,0,0-.31.28l-2,3.21a.85.85,0,0,0-.09.59.84.84,0,0,0,.35.49l6.53,4a.8.8,0,0,0,1.08-.26l2-3.21a.76.76,0,0,0,.11-.36Z" transform="translate(-59.26 -67.15)"/></svg>