<svg id="Calque_1" data-name="Calque 1" xmlns="http://www.w3.org/2000/svg" viewBox="0 0 195 172.68"><defs><style>.cls-1{fill:#e52521;}</style></defs><title>1</title><path class="cls-1" d="M278.48,89.92a1.5,1.5,0,0,0-1.5,1.5v9.44H209.22v-.27h3.53a1.5,1.5,0,0,0,.77-2.79l-30.28-18a1.5,1.5,0,0,0-1.53,0l-30.28,18a1.5,1.5,0,0,0,.76,2.79h3.54v.27H88V91.42a1.5,1.5,0,0,0-3,0V250.78a1.5,1.5,0,0,0,1.5,1.5h192a1.5,1.5,0,0,0,1.5-1.5V91.42A1.5,1.5,0,0,0,278.48,89.92ZM155.6,249.28H88V103.86H155.6Zm17.74,0V215.61h19v33.67Zm32.88,0H195.31V214.11a1.5,1.5,0,0,0-1.5-1.5h-22a1.5,1.5,0,0,0-1.5,1.5v35.17H158.73V99.09a1.5,1.5,0,0,0-1.15-1.46l24.89-14.79,24.89,14.79a1.5,1.5,0,0,0-1.14,1.46Zm70.76,0H209.37V103.86H277Z" transform="translate(-84.99 -79.6)"/><path class="cls-1" d="M102.77,238.52h7.15a1.5,1.5,0,0,0,1.5-1.5V191.2a1.5,1.5,0,0,0-1.5-1.5h-7.15a1.5,1.5,0,0,0-1.5,1.5V237A1.5,1.5,0,0,0,102.77,238.52Zm1.5-45.82h4.15v42.82h-4.15Z" transform="translate(-84.99 -79.6)"/><path class="cls-1" d="M130.13,238.52h7.14a1.5,1.5,0,0,0,1.5-1.5V191.2a1.5,1.5,0,0,0-1.5-1.5h-7.14a1.5,1.5,0,0,0-1.5,1.5V237A1.5,1.5,0,0,0,130.13,238.52Zm1.5-45.82h4.14v42.82h-4.14Z" transform="translate(-84.99 -79.6)"/><path class="cls-1" d="M102.77,185.88h7.15a1.5,1.5,0,0,0,1.5-1.5V138.56a1.5,1.5,0,0,0-1.5-1.5h-7.15a1.5,1.5,0,0,0-1.5,1.5v45.82A1.5,1.5,0,0,0,102.77,185.88Zm1.5-45.82h4.15v42.82h-4.15Z" transform="translate(-84.99 -79.6)"/><path class="cls-1" d="M130.13,185.88h7.14a1.5,1.5,0,0,0,1.5-1.5V138.56a1.5,1.5,0,0,0-1.5-1.5h-7.14a1.5,1.5,0,0,0-1.5,1.5v45.82A1.5,1.5,0,0,0,130.13,185.88Zm1.5-45.82h4.14v42.82h-4.14Z" transform="translate(-84.99 -79.6)"/><path class="cls-1" d="M102.77,131h7.15a1.5,1.5,0,0,0,1.5-1.5V110.64a1.5,1.5,0,0,0-1.5-1.5h-7.15a1.5,1.5,0,0,0-1.5,1.5v18.81A1.5,1.5,0,0,0,102.77,131Zm1.5-18.81h4.15V128h-4.15Z" transform="translate(-84.99 -79.6)"/><path class="cls-1" d="M130.13,131h7.14a1.5,1.5,0,0,0,1.5-1.5V110.64a1.5,1.5,0,0,0-1.5-1.5h-7.14a1.5,1.5,0,0,0-1.5,1.5v18.81A1.5,1.5,0,0,0,130.13,131Zm1.5-18.81h4.14V128h-4.14Z" transform="translate(-84.99 -79.6)"/><path class="cls-1" d="M225.93,238.52h7.14a1.5,1.5,0,0,0,1.5-1.5V191.2a1.5,1.5,0,0,0-1.5-1.5h-7.14a1.5,1.5,0,0,0-1.5,1.5V237A1.5,1.5,0,0,0,225.93,238.52Zm1.5-45.82h4.14v42.82h-4.14Z" transform="translate(-84.99 -79.6)"/><path class="cls-1" d="M253.28,238.52h7.15a1.5,1.5,0,0,0,1.5-1.5V191.2a1.5,1.5,0,0,0-1.5-1.5h-7.15a1.5,1.5,0,0,0-1.5,1.5V237A1.5,1.5,0,0,0,253.28,238.52Zm1.5-45.82h4.15v42.82h-4.15Z" transform="translate(-84.99 -79.6)"/><path class="cls-1" d="M225.93,185.88h7.14a1.5,1.5,0,0,0,1.5-1.5V138.56a1.5,1.5,0,0,0-1.5-1.5h-7.14a1.5,1.5,0,0,0-1.5,1.5v45.82A1.5,1.5,0,0,0,225.93,185.88Zm1.5-45.82h4.14v42.82h-4.14Z" transform="translate(-84.99 -79.6)"/><path class="cls-1" d="M253.28,185.88h7.15a1.5,1.5,0,0,0,1.5-1.5V138.56a1.5,1.5,0,0,0-1.5-1.5h-7.15a1.5,1.5,0,0,0-1.5,1.5v45.82A1.5,1.5,0,0,0,253.28,185.88Zm1.5-45.82h4.15v42.82h-4.15Z" transform="translate(-84.99 -79.6)"/><path class="cls-1" d="M225.93,131h7.14a1.5,1.5,0,0,0,1.5-1.5V110.64a1.5,1.5,0,0,0-1.5-1.5h-7.14a1.5,1.5,0,0,0-1.5,1.5v18.81A1.5,1.5,0,0,0,225.93,131Zm1.5-18.81h4.14V128h-4.14Z" transform="translate(-84.99 -79.6)"/><path class="cls-1" d="M253.28,131h7.15a1.5,1.5,0,0,0,1.5-1.5V110.64a1.5,1.5,0,0,0-1.5-1.5h-7.15a1.5,1.5,0,0,0-1.5,1.5v18.81A1.5,1.5,0,0,0,253.28,131Zm1.5-18.81h4.15V128h-4.15Z" transform="translate(-84.99 -79.6)"/><path class="cls-1" d="M176.75,186h-11.9a1.5,1.5,0,0,0-1.5,1.5v19.22a1.5,1.5,0,0,0,1.5,1.5h11.9a1.5,1.5,0,0,0,1.5-1.5V187.54A1.5,1.5,0,0,0,176.75,186Zm-1.5,19.22h-8.9V189h8.9Z" transform="translate(-84.99 -79.6)"/><path class="cls-1" d="M199.76,186h-11.9a1.5,1.5,0,0,0-1.5,1.5v19.22a1.5,1.5,0,0,0,1.5,1.5h11.9a1.5,1.5,0,0,0,1.5-1.5V187.54A1.5,1.5,0,0,0,199.76,186Zm-1.5,19.22h-8.9V189h8.9Z" transform="translate(-84.99 -79.6)"/><path class="cls-1" d="M176.75,124.53h-11.9a1.5,1.5,0,0,0-1.5,1.5v54.16a1.5,1.5,0,0,0,1.5,1.5h11.9a1.5,1.5,0,0,0,1.5-1.5V126A1.5,1.5,0,0,0,176.75,124.53Zm-1.5,54.16h-8.9V127.53h8.9Z" transform="translate(-84.99 -79.6)"/><path class="cls-1" d="M199.76,124.53h-11.9a1.5,1.5,0,0,0-1.5,1.5v54.16a1.5,1.5,0,0,0,1.5,1.5h11.9a1.5,1.5,0,0,0,1.5-1.5V126A1.5,1.5,0,0,0,199.76,124.53Zm-1.5,54.16h-8.9V127.53h8.9Z" transform="translate(-84.99 -79.6)"/><path class="cls-1" d="M193.75,104.09A10.79,10.79,0,1,0,183,114.88,10.8,10.8,0,0,0,193.75,104.09ZM183,111.88a7.79,7.79,0,1,1,7.79-7.79A7.8,7.8,0,0,1,183,111.88Z" transform="translate(-84.99 -79.6)"/></svg>