<svg id="Calque_1" data-name="Calque 1" xmlns="http://www.w3.org/2000/svg" viewBox="0 0 212.02 155.02"><defs><style>.cls-1{fill:#89c8a5;}</style></defs><title>5</title><path class="cls-1" d="M254.16,157.25,206,127.17l48.21-30a1,1,0,0,0,.47-.73,1,1,0,0,0-.28-.82L235.46,76.47a1,1,0,0,0-.82-.3,1,1,0,0,0-.73.47l-30.29,48.22L172.74,76.63a1,1,0,0,0-.73-.46,1,1,0,0,0-.81.29L152.58,94.8a1,1,0,0,0-.29.82,1,1,0,0,0,.47.74l49.4,30.81-48.32,30.08a1,1,0,0,0-.46.71,1,1,0,0,0,.25.81l17.53,19.15a1,1,0,0,0,.74.33H172a1,1,0,0,0,.76-.46l30.87-49.16,0,0,30.8,48.11a1,1,0,0,0,.73.45h.11a1,1,0,0,0,.7-.29l18.35-18.07a1,1,0,0,0,.29-.83A1,1,0,0,0,254.16,157.25ZM234.93,78.77l17.12,17.36-46,28.63Zm-80,16.56,16.83-16.58,28.88,45.09Zm16.86,80.27-15.83-17.29L199.74,131Zm63.72-1-28.41-44.36,45,28Z" transform="translate(-61.59 -76.17)"/><path class="cls-1" d="M226.61,141.43a1.5,1.5,0,0,1,1,.44l.08.08a1.21,1.21,0,0,1,.88.5V127.6a25,25,0,0,0-3.66-13,8.73,8.73,0,0,1-1.27,1.31.86.86,0,0,1-.2.13,23,23,0,0,1,3.13,11.61Z" transform="translate(-61.59 -76.17)"/><path class="cls-1" d="M185.46,154.78c-.29.69-.6,1.35-1,2h38.14a4,4,0,0,0-.49-.16,1.41,1.41,0,0,1-1.32-1.84Z" transform="translate(-61.59 -76.17)"/><path class="cls-1" d="M272.61,229.19h-5.67v-6.87a1,1,0,0,0-1-1H239.87l-9.17-53.49a1.09,1.09,0,0,1-.11-.1L229.3,166a1.59,1.59,0,0,1-.28-.55,1.67,1.67,0,0,1-.38-.41L228,164l9.83,57.32H219.6V190.75a16.38,16.38,0,1,0-32.75,0v30.57h-18L178.55,166a22.58,22.58,0,0,1-1.65,3.3,1.28,1.28,0,0,1-1.07.64l-9,51.42H143.58V203.19a1,1,0,0,0-2,0V221.7a1,1,0,0,0-.23.62v6.87H123.52a.88.88,0,0,0,.06-.28V203.19a1,1,0,0,0-2,0v25.72a1.26,1.26,0,0,0,0,.28H103.52a1.26,1.26,0,0,0,0-.28V203.19a1,1,0,0,0-2,0v25.72a.88.88,0,0,0,.06.28H83.52a.93.93,0,0,0,0-.29L83,185.49c14.75-.67,17-17.63,17-17.81a1.24,1.24,0,0,0-.06-.47l-16.43-43.4a1,1,0,0,0-1.87,0L65.21,167.24a1.14,1.14,0,0,0-.07.41c0,.17,1.08,17,15.86,17.83l.57,43.44a.82.82,0,0,0,.06.27h-18v-26a1,1,0,0,0-2,0v27a1,1,0,0,0,1,1h210a1,1,0,0,0,0-2ZM69.38,175.64a23.32,23.32,0,0,1-2.22-7.9L82.57,127,98,167.68a25.42,25.42,0,0,1-2.77,8c-3,5.27-7.45,7.9-13.22,7.89A13.31,13.31,0,0,1,69.38,175.64Zm134.85.78a14.38,14.38,0,0,1,13.37,14.33v30.57H204.23Zm-15.38,14.33a14.39,14.39,0,0,1,13.38-14.33v44.9H188.85ZM264.94,229H143.56s0-.06,0-.09v-5.59H264.94Z" transform="translate(-61.59 -76.17)"/><path class="cls-1" d="M203.46,102.45A25,25,0,0,0,190.64,106a1.44,1.44,0,0,1,.27,2.19,23,23,0,0,1,25-.07c.26-.62.51-1.25.78-1.87A25,25,0,0,0,203.46,102.45Z" transform="translate(-61.59 -76.17)"/><path class="cls-1" d="M183.58,113.92c-.27-.15-.54-.31-.81-.49l0,0a25,25,0,0,0-4.42,14.21v16.16l.16-.19a1.5,1.5,0,0,1,.67-.5h0a1.29,1.29,0,0,1,1.17-.42v-15a23,23,0,0,1,4.15-13.2A9.33,9.33,0,0,1,183.58,113.92Z" transform="translate(-61.59 -76.17)"/><path class="cls-1" d="M74,184.53" transform="translate(-61.59 -76.17)"/></svg>