<svg id="Calque_1" data-name="Calque 1" xmlns="http://www.w3.org/2000/svg" viewBox="0 0 109.3 177.45"><defs><style>.cls-1{fill:#878787;}</style></defs><title>2</title><path class="cls-1" d="M224.76,239.21a1.19,1.19,0,0,0-.16.08l.07,0Z" transform="translate(-164 -91.04)"/><path class="cls-1" d="M273.3,268.49H164V91H273.3Zm-106.3-3H270.3V94H167Z" transform="translate(-164 -91.04)"/><path class="cls-1" d="M220.15,268.49H199.71V218.58h20.44Zm-17.44-3h14.44V221.58H202.71Z" transform="translate(-164 -91.04)"/><path class="cls-1" d="M237.59,268.49H217.15V218.58h20.44Zm-17.44-3h14.44V221.58H220.15Z" transform="translate(-164 -91.04)"/><path class="cls-1" d="M198.68,118.17H170.84v-16h27.84Zm-24.84-3h21.84v-10H173.84Z" transform="translate(-164 -91.04)"/><path class="cls-1" d="M232.69,118.17H204.85v-16h27.84Zm-24.84-3h21.84v-10H207.85Z" transform="translate(-164 -91.04)"/><path class="cls-1" d="M266.7,118.17H238.85v-16H266.7Zm-24.85-3H263.7v-10H241.85Z" transform="translate(-164 -91.04)"/><path class="cls-1" d="M198.68,136.94H170.84V121h27.84Zm-24.84-3h21.84V124H173.84Z" transform="translate(-164 -91.04)"/><path class="cls-1" d="M232.69,136.94H204.85V121h27.84Zm-24.84-3h21.84V124H207.85Z" transform="translate(-164 -91.04)"/><path class="cls-1" d="M266.7,136.94H238.85V121H266.7Zm-24.85-3H263.7V124H241.85Z" transform="translate(-164 -91.04)"/><path class="cls-1" d="M198.68,155.66H170.84v-16h27.84Zm-24.84-3h21.84v-10H173.84Z" transform="translate(-164 -91.04)"/><path class="cls-1" d="M232.69,155.66H204.85v-16h27.84Zm-24.84-3h21.84v-10H207.85Z" transform="translate(-164 -91.04)"/><path class="cls-1" d="M266.7,155.66H238.85v-16H266.7Zm-24.85-3H263.7v-10H241.85Z" transform="translate(-164 -91.04)"/><path class="cls-1" d="M198.68,174.44H170.84v-16h27.84Zm-24.84-3h21.84v-10H173.84Z" transform="translate(-164 -91.04)"/><path class="cls-1" d="M232.69,174.44H204.85v-16h27.84Zm-24.84-3h21.84v-10H207.85Z" transform="translate(-164 -91.04)"/><path class="cls-1" d="M266.7,174.44H238.85v-16H266.7Zm-24.85-3H263.7v-10H241.85Z" transform="translate(-164 -91.04)"/><path class="cls-1" d="M198.68,193.15H170.84v-16h27.84Zm-24.84-3h21.84v-10H173.84Z" transform="translate(-164 -91.04)"/><path class="cls-1" d="M232.69,193.15H204.85v-16h27.84Zm-24.84-3h21.84v-10H207.85Z" transform="translate(-164 -91.04)"/><path class="cls-1" d="M266.7,193.15H238.85v-16H266.7Zm-24.85-3H263.7v-10H241.85Z" transform="translate(-164 -91.04)"/><path class="cls-1" d="M198.68,211.93H170.84V196h27.84Zm-24.84-3h21.84V199H173.84Z" transform="translate(-164 -91.04)"/><path class="cls-1" d="M232.69,211.93H204.85V196h27.84Zm-24.84-3h21.84V199H207.85Z" transform="translate(-164 -91.04)"/><path class="cls-1" d="M266.7,211.93H238.85V196H266.7Zm-24.85-3H263.7V199H241.85Z" transform="translate(-164 -91.04)"/><path class="cls-1" d="M197.26,257.72H170.84V220.64h26.42Zm-23.42-3h20.42V223.64H173.84Z" transform="translate(-164 -91.04)"/><path class="cls-1" d="M266,257.72H239.56V220.64H266Zm-23.43-3H263V223.64H242.56Z" transform="translate(-164 -91.04)"/></svg>