<svg id="Calque_1" data-name="Calque 1" xmlns="http://www.w3.org/2000/svg" viewBox="0 0 212.84 126.68"><defs><style>.cls-1{fill:#3e93b6;}</style></defs><title>7</title><path class="cls-1" d="M181.49,169.05h25.17V145.26H181.49Zm3-20.79h19.17v17.79H184.49Z" transform="translate(-68 -90.27)"/><path class="cls-1" d="M149.32,169.05h25.17V145.26H149.32Zm3-20.79h19.17v17.79H152.32Z" transform="translate(-68 -90.27)"/><path class="cls-1" d="M270,181.66a10.79,10.79,0,0,0-7.82,3.36V139.5a10.33,10.33,0,0,0,7.18-9.83V115.49a1.64,1.64,0,0,0,0-.23.11.11,0,0,1,0-.05,1.6,1.6,0,0,0-.12-.37.56.56,0,0,1-.05-.08,1.37,1.37,0,0,0-.2-.29l0,0-9.5-9.83V91.77a1.5,1.5,0,0,0-1.5-1.5H136.92a1.5,1.5,0,0,0-1.5,1.5v12.84l-9.76,9.82h0a1.34,1.34,0,0,0-.22.31l-.05.08a2.32,2.32,0,0,0-.13.37v0a1.24,1.24,0,0,0,0,.27v14.18a10.33,10.33,0,0,0,8.83,10.2V189.6H114.39v13.68H98.81V217h32.86v0h85.75v0h34.3v0h7.49v0h21.63V192.48A10.83,10.83,0,0,0,270,181.66ZM138.42,93.27H256.47v10.46H138.42Zm-.87,13.46H257.34l7,7.26h-134Zm-9.33,22.94V117H266.39v12.68a7.33,7.33,0,0,1-4.18,6.61V136l-1.78.34a7.22,7.22,0,0,1-1.36.14,7.34,7.34,0,0,1-7.33-7.33h-.09a1.49,1.49,0,0,0-2.81,0h-.1a7.32,7.32,0,1,1-14.64,0H234a1.49,1.49,0,0,0-2.82,0h-.09a7.33,7.33,0,1,1-14.65,0h-.09a1.49,1.49,0,0,0-2.82,0h-.09a7.32,7.32,0,1,1-14.64,0h-.1a1.49,1.49,0,0,0-2.81,0h-.09a7.33,7.33,0,1,1-14.65,0h-.09a1.49,1.49,0,0,0-2.82,0h-.09a7.32,7.32,0,1,1-14.64,0h-.1a1.49,1.49,0,0,0-2.81,0h-.09a7.33,7.33,0,1,1-14.65,0h-.09a1.49,1.49,0,0,0-2.82,0h-.09a7.34,7.34,0,0,1-7.32,7.33h-1.5v.34A7.34,7.34,0,0,1,128.22,129.67Zm-26.41,76.61h26.86V214H101.81Zm90.77,7.64H131.67V203.28H117.39V192.6h75.19Zm56.14,0h-28.3V148.26h28.3Zm3,0V145.26h-34.3v68.66H195.58V189.6H137.05V139.88a10.33,10.33,0,0,0,7.32-4.85A10.32,10.32,0,0,0,162,135a10.31,10.31,0,0,0,17.64,0,10.32,10.32,0,0,0,17.65,0A10.31,10.31,0,0,0,215,135a10.32,10.32,0,0,0,17.65,0,10.31,10.31,0,0,0,17.64,0,10.35,10.35,0,0,0,8.83,5h.14v73.93Zm26.12,0H262.21V192.48a7.82,7.82,0,1,1,15.63,0Z" transform="translate(-68 -90.27)"/><path class="cls-1" d="M103.83,158.56a17.92,17.92,0,1,0-19.41,17.83v39h3v-39A17.92,17.92,0,0,0,103.83,158.56ZM85.92,173.47a14.91,14.91,0,1,1,14.91-14.91A14.93,14.93,0,0,1,85.92,173.47Z" transform="translate(-68 -90.27)"/></svg>