<svg id="Calque_1" data-name="Calque 1" xmlns="http://www.w3.org/2000/svg" viewBox="0 0 176.16 197.24"><defs><style>.cls-1{fill:#fdc608;}</style></defs><title>12</title><path class="cls-1" d="M140,262.05H94.62V233L140,204.42Zm-42.33-3H137V209.86L97.62,234.67Z" transform="translate(-94.62 -64.81)"/><path class="cls-1" d="M270.78,262.05H225.44V204.42L270.78,233Zm-42.34-3h39.34V234.67l-39.34-24.81Z" transform="translate(-94.62 -64.81)"/><path class="cls-1" d="M221.59,262.05H143.81V184.89l38.89-21.74,38.89,21.74Zm-74.78-3h71.78v-72.4L182.7,166.58l-35.89,20.07Z" transform="translate(-94.62 -64.81)"/><path class="cls-1" d="M154.72,174.82V129.34h53.14v43.82L182.7,160Zm3-42.48v37.49l25-13.22,22.17,11.59V132.34Z" transform="translate(-94.62 -64.81)"/><path class="cls-1" d="M158.54,126l19.23-30.61V80.83h-9.3V73h9.3V64.81h7.41V73h9.67v7.79h-9.67V95l19.54,30.93Zm12.93-48.15h9.3V96.24L164,123l35.31-.08-17.1-27.07v-18h9.67V76h-9.67V67.81h-1.41V76h-9.3Z" transform="translate(-94.62 -64.81)"/><path class="cls-1" d="M184.2,262.05H166.39V216.29H184.2Zm-14.81-3H181.2V219.29H169.39Z" transform="translate(-94.62 -64.81)"/><path class="cls-1" d="M199,262.05H181.2V216.29H199Zm-14.8-3H196V219.29H184.2Z" transform="translate(-94.62 -64.81)"/><path class="cls-1" d="M211.62,208.64H154.34l.42-1.84c.06-.25,6-25.32,27.44-25.32s28.8,25,28.88,25.24Zm-53.41-3h49.31c-2.12-5.54-9.51-21.16-25.32-21.16-7.93,0-14.45,3.81-19.37,11.33A40.68,40.68,0,0,0,158.21,205.64Z" transform="translate(-94.62 -64.81)"/><path class="cls-1" d="M131,245.32H106.61V235.1H131Zm-21.39-3H128V238.1H109.61Z" transform="translate(-94.62 -64.81)"/><path class="cls-1" d="M260.3,245.32H235.92V235.1H260.3Zm-21.38-3H257.3V238.1H238.92Z" transform="translate(-94.62 -64.81)"/></svg>