<svg id="Calque_1" data-name="Calque 1" xmlns="http://www.w3.org/2000/svg" viewBox="0 0 275.42 223.21"><defs><style>.cls-1{fill:#5d2482;}</style></defs><title>3</title><path class="cls-1" d="M262.86,262.92H239.81V222.83c0-9.46,5.17-17.15,11.52-17.15s11.53,7.69,11.53,17.15Zm-20.05-3h17.05V222.83c0-7.67-3.91-14.15-8.53-14.15s-8.52,6.48-8.52,14.15Z" transform="translate(-41.35 -39.72)"/><path class="cls-1" d="M277.05,262.92H167.16V96.3H277.05Zm-106.89-3H274.05V99.3H170.16Z" transform="translate(-41.35 -39.72)"/><path class="cls-1" d="M252.71,192.51a12.9,12.9,0,1,1,12.9-12.9A12.92,12.92,0,0,1,252.71,192.51Zm0-22.8a9.9,9.9,0,1,0,9.9,9.9A9.91,9.91,0,0,0,252.71,169.71Z" transform="translate(-41.35 -39.72)"/><path class="cls-1" d="M197.08,192.51a12.9,12.9,0,1,1,12.5-16.16h0a12.91,12.91,0,0,1-9.22,15.74A13.18,13.18,0,0,1,197.08,192.51Zm0-22.8a9.9,9.9,0,1,0,9.57,7.4h0a9.92,9.92,0,0,0-9.57-7.4Z" transform="translate(-41.35 -39.72)"/><path class="cls-1" d="M215.36,228.64a12.9,12.9,0,0,1-11.13-19.42,12.9,12.9,0,0,1,23.61,3.25h0a12.91,12.91,0,0,1-9.22,15.75A13.08,13.08,0,0,1,215.36,228.64Zm0-22.81a9.9,9.9,0,1,0,9.56,7.4h0a9.92,9.92,0,0,0-9.56-7.4Z" transform="translate(-41.35 -39.72)"/><path class="cls-1" d="M231.17,192.51h-8.82V168.08h8.82Zm-5.82-3h2.82V171.08h-2.82Z" transform="translate(-41.35 -39.72)"/><path class="cls-1" d="M265.77,137.5h-8.83V113.07h8.83Zm-5.83-3h2.83V116.07h-2.83Z" transform="translate(-41.35 -39.72)"/><path class="cls-1" d="M193,228H184.2V203.53H193Zm-5.83-3H190V206.53H187.2Z" transform="translate(-41.35 -39.72)"/><rect class="cls-1" x="127.31" y="110.89" width="106.89" height="3"/><path class="cls-1" d="M246,139.77H220.6V112H246Zm-22.44-3H243V115H223.6Z" transform="translate(-41.35 -39.72)"/><path class="cls-1" d="M209.82,139.77H184.38V112h25.44Zm-22.44-3h19.44V115H187.38Z" transform="translate(-41.35 -39.72)"/><path class="cls-1" d="M280.77,99.3H163.27L222,39.72Zm-110.33-3H273.59L222,44Z" transform="translate(-41.35 -39.72)"/><rect class="cls-1" x="218.51" y="20.27" width="3" height="21.76"/><path class="cls-1" d="M316.76,262.92H274.05V239.4h42.71Zm-39.71-3h36.71V242.4H277.05Z" transform="translate(-41.35 -39.72)"/><rect class="cls-1" x="91.32" y="167.46" width="3" height="52.37"/><rect class="cls-1" x="37.82" y="189.48" width="3" height="31.32"/><rect class="cls-1" y="220.21" width="273.92" height="3"/><path class="cls-1" d="M153.56,207.72H114.78l19.39-97.88Zm-35.13-3h31.48l-15.74-79.44Z" transform="translate(-41.35 -39.72)"/><path class="cls-1" d="M81,230.7a22.35,22.35,0,1,1,22.35-22.35A22.37,22.37,0,0,1,81,230.7ZM81,189a19.35,19.35,0,1,0,19.35,19.35A19.37,19.37,0,0,0,81,189Z" transform="translate(-41.35 -39.72)"/></svg>