<svg id="Calque_1" data-name="Calque 1" xmlns="http://www.w3.org/2000/svg" viewBox="0 0 192.38 98.33"><defs><style>.cls-1{fill:#8dbf2b;}</style></defs><title>8</title><path class="cls-1" d="M262.25,205.87v-9.72h12.57l-2.17-7.1h2.82l-3.65-6h3.32l-3.86-6.6h2.34l-12.89-29.86-12.88,29.86h2.89l-3.86,6.6h2.8l-3.66,6h2.83l-2.18,7.1h12.58v9.72h-22v-15c5.5-1.59,9.59-10.15,9.59-20.82,0-11.84-5-21.11-11.42-21.11S224,158.17,224,170c0,11.11,4.43,20,10.26,21v14.86H202.09V193.76h21.42l-3.77-12.31h4.42l-6.34-10.36h5.81l-6.7-11.44h4.3l-20.67-47.92-20.68,47.92h5.27l-6.7,11.44h4.91L177,181.45h4.42l-3.77,12.31h21.43v12.11H173.93V154.64a13.37,13.37,0,1,0-3,0v51.23H136.81V186.32a17,17,0,0,0,4.71-32.91,13.34,13.34,0,0,0,.3-23.95,10.59,10.59,0,1,0-12.64.28,13.34,13.34,0,0,0,.84,23.67,17,17,0,0,0,3.79,32.84v19.62H103.53V183.61c8.54-1.39,15-14.54,15-31.07,0-17.5-7.26-31.2-16.53-31.2S85.5,135,85.5,152.54c0,16.53,6.49,29.68,15,31.07v22.26h-10v3h187.3v-3Zm-9.35-19.82h-1.52l3.66-6h-2.93l3.86-6.6h-3.56l8.32-19.29,8.32,19.29h-3l3.87,6.6h-3.45l3.66,6h-1.53l2.18,7.1h-20ZM227,170c0-10.83,4.36-18.11,8.43-18.11s8.42,7.28,8.42,18.11-4.36,18.1-8.42,18.1S227,180.84,227,170Zm-44.63,8.44,6.34-10.36h-5l6.71-11.44h-5.94l16.11-37.35,16.11,37.35h-5l6.7,11.44h-5.94l6.35,10.36h-3.12l3.77,12.31H181.72l3.77-12.31Zm-20.31-37.09a10.37,10.37,0,1,1,11.87,10.25V139.74h-3v11.87A10.37,10.37,0,0,1,162.06,141.36Zm-12.3,28a14,14,0,0,1-12.95,13.94V155.44A14,14,0,0,1,149.76,169.38Zm-3.63-28a10.38,10.38,0,0,1-9.32,10.32V131.59a10.86,10.86,0,0,0,1.4-.29A10.37,10.37,0,0,1,146.13,141.36Zm-18.41-20.24A7.59,7.59,0,1,1,138,128.2a12.12,12.12,0,0,0-1.21-.15v-5.81h-3v5.92c-.31,0-.61.09-.91.15A7.59,7.59,0,0,1,127.72,121.12Zm-2.32,20.24a10.36,10.36,0,0,1,7.47-9.94c.31.07.62.13.94.17v19.95A10.39,10.39,0,0,1,125.4,141.36Zm-3.63,28a14,14,0,0,1,12-13.84v27.68A14,14,0,0,1,121.77,169.38ZM88.5,152.54c0-15.29,6.19-28.2,13.53-28.2s13.53,12.91,13.53,28.2c0,14.23-5.37,26.4-12,28v-28h-3v28C93.87,178.94,88.5,166.77,88.5,152.54Z" transform="translate(-85.5 -110.53)"/></svg>