<svg id="Calque_1" data-name="Calque 1" xmlns="http://www.w3.org/2000/svg" viewBox="0 0 116.72 197.4"><defs><style>.cls-1{fill:#a2d3dc;}</style></defs><title>13</title><path class="cls-1" d="M123,249.6h112.2V110.94H123ZM168.79,245V200.17h21.34V245ZM126,113.94h106.2V246.6H214.64V233.32h8.71V212.5H202.52v20.82h9.12V246.6H193.13V197.17H165.79V246.6H126Zm79.57,116.38V215.5h14.83v14.82Z" transform="translate(-120.7 -52.2)"/><path class="cls-1" d="M179.05,52.2l-26.33,25V65H137.54V91.6l-16.84,16H237.41ZM140.54,92.89V68h9.18V84.18l29.33-27.84,50.84,48.26H128.21Z" transform="translate(-120.7 -52.2)"/><path class="cls-1" d="M131.83,158.82h26.75V127.7H131.83Zm3-28.12h20.75v25.12H134.83Z" transform="translate(-120.7 -52.2)"/><path class="cls-1" d="M192.43,127.7H165.68v31.12h26.75Zm-3,28.12H168.68V130.7h20.75Z" transform="translate(-120.7 -52.2)"/><path class="cls-1" d="M226.51,127.7H199.77v31.12h26.74Zm-3,28.12H202.77V130.7h20.74Z" transform="translate(-120.7 -52.2)"/><path class="cls-1" d="M131.83,190.24h26.75V169.52H131.83Zm3-17.72h20.75v14.72H134.83Z" transform="translate(-120.7 -52.2)"/><path class="cls-1" d="M166.38,190.24h26.75V169.52H166.38Zm3-17.72h20.75v14.72H169.38Z" transform="translate(-120.7 -52.2)"/><path class="cls-1" d="M226.51,169.52H199.77v20.72h26.74Zm-3,17.72H202.77V172.52h20.74Z" transform="translate(-120.7 -52.2)"/></svg>