<svg id="Calque_1" data-name="Calque 1" xmlns="http://www.w3.org/2000/svg" viewBox="0 0 238.14 151.95"><defs><style>.cls-1{fill:#ec661c;}</style></defs><title>4</title><path class="cls-1" d="M296.62,102.44a1.5,1.5,0,0,0,1.5-1.5V81.61a1.5,1.5,0,0,0-1.5-1.5H277.29a1.5,1.5,0,0,0-1.5,1.5v27.12H261.53a1.5,1.5,0,0,0-1.5,1.5v27.66a8.62,8.62,0,0,0-5.41,6.18,1.33,1.33,0,0,0,0,.28v11.39h-13V145.5a8.83,8.83,0,0,0-8.87-8.26c-6.52-.17-9.14,4.38-9.61,6.83a1.33,1.33,0,0,0,0,.28v11.39H212.65V145.16a.31.31,0,0,0,0-.1,8.8,8.8,0,0,0-8.86-8.26c-6.53-.18-9.14,4.38-9.61,6.82a1.43,1.43,0,0,0,0,.29v11H178.77V116.07H210a1.5,1.5,0,0,0,1.5-1.5V96.05a1.5,1.5,0,0,0-1.5-1.5H177.27a1.5,1.5,0,0,0-1.5,1.5v58.86h-5.72V145.6a.31.31,0,0,0,0-.1,8.81,8.81,0,0,0-8.86-8.26c-6.53-.17-9.14,4.38-9.61,6.83a1.33,1.33,0,0,0,0,.28v11.39H143V145.5a8.83,8.83,0,0,0-8.87-8.26c-6.52-.17-9.14,4.38-9.61,6.83a1.33,1.33,0,0,0,0,.28v11.39H112v-8.92a.38.38,0,0,0,0-.1,8.82,8.82,0,0,0-8.87-8.26,10.29,10.29,0,0,0-5.08,1.06V110.23a1.5,1.5,0,0,0-1.5-1.5H79.12v-6.29H96.58a1.5,1.5,0,0,0,1.5-1.5V81.61a1.5,1.5,0,0,0-1.5-1.5H77.25a1.5,1.5,0,0,0-1.5,1.5v19.33a1.47,1.47,0,0,0,.37,1v6.81H61.48a1.5,1.5,0,0,0-1.5,1.5V230.56a1.51,1.51,0,0,0,1.5,1.5H296.62a1.5,1.5,0,0,0,1.5-1.5V110.23a1.5,1.5,0,0,0-1.5-1.5H278.79v-6.29ZM278.79,83.11h16.33V99.44H278.79Zm-100,14.44h29.74v15.52H178.77Zm-100-14.44H95.08V99.44H78.75Zm16.33,146H63V111.73h32.1Zm66.91,0H98.08V214.51H162Zm16.36,0H165V185.22a14.82,14.82,0,0,1,13.36-14.72Zm16.22,0H181.35V170.52a14.81,14.81,0,0,1,13.22,14.7Zm65.46,0H197.57V214.51H260Zm0-17.55H197.57V185.22A17.8,17.8,0,0,0,180,167.44h-.19A17.81,17.81,0,0,0,162,185.22v26.29H98.08V143.13a6.6,6.6,0,0,1,5-1.67,5.85,5.85,0,0,1,6,5.42v9.22a1.47,1.47,0,0,0-.54,1.14,1.88,1.88,0,0,0,3,1.5H126a1.5,1.5,0,0,0,1.5-1.5V144.52c.19-.74,1.36-4.43,6.55-4.28a5.82,5.82,0,0,1,6,5.42v12a1.5,1.5,0,0,0,2.56,1.06H153a1.5,1.5,0,0,0,1.5-1.5V144.52c.19-.74,1.36-4.43,6.55-4.28a5.84,5.84,0,0,1,6,5.42v10.75a1.5,1.5,0,0,0,1.5,1.5h26.09a1.48,1.48,0,0,0,2.21-.23,1.48,1.48,0,0,0,.29-2.31V144.08c.21-.83,1.43-4.42,6.55-4.29a5.85,5.85,0,0,1,6,5.43v12a1.5,1.5,0,0,0,1.5,1.5h13.43a1.5,1.5,0,0,0,1.5-1.5V144.52c.19-.74,1.35-4.43,6.55-4.28a5.82,5.82,0,0,1,6,5.42v12a1.5,1.5,0,0,0,2.56,1.06h14.94a1.5,1.5,0,0,0,1.5-1.5V144.52a5.6,5.6,0,0,1,2.44-3.31Zm35.09-99.78V229.06H263V111.73Z" transform="translate(-59.98 -80.11)"/><path class="cls-1" d="M115.25,188.39a11.32,11.32,0,1,0-11.32-11.31A11.32,11.32,0,0,0,115.25,188.39Zm0-19.63a8.32,8.32,0,1,1-8.32,8.32A8.32,8.32,0,0,1,115.25,168.76Z" transform="translate(-59.98 -80.11)"/><path class="cls-1" d="M144.28,188.39A11.32,11.32,0,1,0,133,177.08,11.32,11.32,0,0,0,144.28,188.39Zm0-19.63a8.32,8.32,0,1,1-8.32,8.32A8.32,8.32,0,0,1,144.28,168.76Z" transform="translate(-59.98 -80.11)"/><path class="cls-1" d="M215.92,188.39a11.32,11.32,0,1,0-11.32-11.31A11.32,11.32,0,0,0,215.92,188.39Zm0-19.63a8.32,8.32,0,1,1-8.32,8.32A8.32,8.32,0,0,1,215.92,168.76Z" transform="translate(-59.98 -80.11)"/><path class="cls-1" d="M245,188.39a11.32,11.32,0,1,0-11.32-11.31A11.32,11.32,0,0,0,245,188.39Zm0-19.63a8.32,8.32,0,1,1-8.32,8.32A8.32,8.32,0,0,1,245,168.76Z" transform="translate(-59.98 -80.11)"/><path class="cls-1" d="M76.57,153.51h4.92A1.5,1.5,0,0,0,83,152V119.74a1.5,1.5,0,0,0-1.5-1.5H76.57a1.5,1.5,0,0,0-1.5,1.5V152A1.5,1.5,0,0,0,76.57,153.51Zm1.5-32.27H80v29.27H78.07Z" transform="translate(-59.98 -80.11)"/><path class="cls-1" d="M81.49,177.35H76.57a1.5,1.5,0,0,0-1.5,1.5v32.26a1.5,1.5,0,0,0,1.5,1.5h4.92a1.5,1.5,0,0,0,1.5-1.5V178.85A1.5,1.5,0,0,0,81.49,177.35ZM80,209.61H78.07V180.35H80Z" transform="translate(-59.98 -80.11)"/><path class="cls-1" d="M275.12,119.74V152a1.5,1.5,0,0,0,1.5,1.5h4.92A1.5,1.5,0,0,0,283,152V119.74a1.5,1.5,0,0,0-1.5-1.5h-4.92A1.5,1.5,0,0,0,275.12,119.74Zm3,1.5H280v29.27h-1.92Z" transform="translate(-59.98 -80.11)"/><path class="cls-1" d="M281.54,177.35h-4.92a1.5,1.5,0,0,0-1.5,1.5v32.26a1.5,1.5,0,0,0,1.5,1.5h4.92a1.5,1.5,0,0,0,1.5-1.5V178.85A1.5,1.5,0,0,0,281.54,177.35ZM280,209.61h-1.92V180.35H280Z" transform="translate(-59.98 -80.11)"/></svg>