<svg id="Calque_1" data-name="Calque 1" xmlns="http://www.w3.org/2000/svg" viewBox="0 0 212.26 167.76"><defs><style>.cls-1{fill:#25378b;}</style></defs><title>9</title><path class="cls-1" d="M291.93,247.2c.37.26.74.52,1.12.77.22.12.05-.05-1.21-.85l0,0Z" transform="translate(-85.44 -80.25)"/><path class="cls-1" d="M180.27,163.21,96,233.67a3.05,3.05,0,0,1-3.83-4.76l85.31-65.86c-.83-.06-1.46-.11-1.76-.12a1.31,1.31,0,0,1-1.36-1.27l-84,64.89A6.05,6.05,0,1,0,97.9,236L185,163.16A41.74,41.74,0,0,1,180.27,163.21Z" transform="translate(-85.44 -80.25)"/><path class="cls-1" d="M295.43,226.84l-84.35-65.13a18.17,18.17,0,0,1-2.09.06,1.24,1.24,0,0,1-.22.18c0,.13,0,.26,0,.39a1.55,1.55,0,0,1-.5,1l85.31,65.87A3,3,0,0,1,292,234.6a3,3,0,0,1-2.22-.62l-83.76-70a26,26,0,0,1-3-.21c-.73-.06-1.45-.13-2.16-.23l87.06,72.8a6,6,0,0,0,3.76,1.32,5.58,5.58,0,0,0,.7,0,6,6,0,0,0,4.05-2.23A6.05,6.05,0,0,0,295.43,226.84Z" transform="translate(-85.44 -80.25)"/><rect class="cls-1" x="22.93" y="139.69" width="168.39" height="5.41"/><path class="cls-1" d="M278.27,226.84H106.87v-8.41h171.4Zm-168.4-3h165.4v-2.41H109.87Z" transform="translate(-85.44 -80.25)"/><rect class="cls-1" x="37.51" y="126.46" width="139.09" height="5.41"/><path class="cls-1" d="M263.54,213.61H121.45v-8.4H263.54Zm-139.09-3H260.54v-2.4H124.45Z" transform="translate(-85.44 -80.25)"/><rect class="cls-1" x="51.3" y="113.77" width="112.64" height="5.41"/><path class="cls-1" d="M250.88,200.93H135.24v-8.41H250.88Zm-112.64-3H247.88v-2.41H138.24Z" transform="translate(-85.44 -80.25)"/><rect class="cls-1" x="65.55" y="103.49" width="85.07" height="5.41"/><path class="cls-1" d="M237.56,190.64H149.49v-8.4h88.07Zm-85.07-3h82.07v-2.4H152.49Z" transform="translate(-85.44 -80.25)"/><rect class="cls-1" x="77.95" y="93.21" width="57.88" height="5.41"/><path class="cls-1" d="M222.77,180.36H161.89V172h60.88Zm-57.88-3h54.88V175H164.89Z" transform="translate(-85.44 -80.25)"/><rect class="cls-1" x="90" y="82.92" width="33.41" height="5.41"/><path class="cls-1" d="M210.34,170.07h-36.4v-8.4h36.4Zm-33.4-3h30.4v-2.4h-30.4Z" transform="translate(-85.44 -80.25)"/><rect class="cls-1" x="26.34" y="61.51" width="3" height="59.29"/><rect class="cls-1" y="119.3" width="40.51" height="3"/><path class="cls-1" d="M114,143.26h-2.2a13.52,13.52,0,0,1-13.5-13.5v-36a13.51,13.51,0,0,1,13.5-13.5H114a13.51,13.51,0,0,1,13.5,13.5v36A13.51,13.51,0,0,1,114,143.26Zm-2.2-60a10.51,10.51,0,0,0-10.5,10.5v36a10.51,10.51,0,0,0,10.5,10.5H114a10.51,10.51,0,0,0,10.5-10.5v-36A10.51,10.51,0,0,0,114,83.25Z" transform="translate(-85.44 -80.25)"/><path class="cls-1" d="M112.85,111.21a10,10,0,1,1,10-10A10,10,0,0,1,112.85,111.21Zm0-17a7,7,0,1,0,7,7A7,7,0,0,0,112.85,94.22Z" transform="translate(-85.44 -80.25)"/><path class="cls-1" d="M112.85,134.58a10,10,0,1,1,10-10A10,10,0,0,1,112.85,134.58Zm0-17a7,7,0,1,0,7,7A7,7,0,0,0,112.85,117.59Z" transform="translate(-85.44 -80.25)"/></svg>