<svg id="Calque_1" data-name="Calque 1" xmlns="http://www.w3.org/2000/svg" viewBox="0 0 145.12 64.82"><defs><style>.cls-1{fill:#0b6741;}</style></defs><title>14</title><path class="cls-1" d="M264.58,202.24H135.39V180.77H264.58Zm-126.19-3H261.58V183.77H138.39Z" transform="translate(-122.37 -137.43)"/><path class="cls-1" d="M135.42,182.55c-2-10.43-5.45-24.34-8.67-29.23l-4.38-6.65,6.5,4.6a28.88,28.88,0,0,1,9.23,10.85l2.77-11.68L144.38,164a33.43,33.43,0,0,0,7.16-13.3l2.61-9.58.34,9.92c.16,4.84.16,9.73,0,14.58a15,15,0,0,0,5.68-4.18l1.77-2.12,1.27,4.1a30,30,0,0,0,2.71-11.65l.41-14.29,2.57,14.06a87,87,0,0,0,3.42,13,17.59,17.59,0,0,1,1.2-1.8l1.18-1.55,4.08,5.26A39.58,39.58,0,0,0,183.44,152l.75-6.37,7,19.77,9.38-10.84.54,8.71,4.47-19,1.88,3.44A151,151,0,0,1,215.18,164l4.07-8,.7,4.64c.27,1.83.55,3.72,1.81,4.92a2.2,2.2,0,0,0,1.08.58,2.17,2.17,0,0,0,2.54-1.54c3.1-8,4.36-8.76,5.48-8.9a1.84,1.84,0,0,1,1.72.76c.78,1.09.56,3.66,0,6.22a52.8,52.8,0,0,0,4.77-5.15l2.76-3.43-.27,11.82a15.44,15.44,0,0,0,3.86-3l2-2.12.85,4.39a6.93,6.93,0,0,1,6.38.69,41.88,41.88,0,0,0,4.31-16.45l.56-11.14,2.4,10.9c1.1,5,2,10.07,2.59,15.16a11.55,11.55,0,0,1,1.15-.83l3.58-2.31-1.35,4c-.83,2.48-1.43,12.35-1.56,17.08l-3-.09c0-.1.24-7.47.85-13L260.56,172l-.41-4.08c-.33-3.19-.75-6.39-1.27-9.57a44.78,44.78,0,0,1-4.29,10.77l-1.24,2.21L252,169.17a3.67,3.67,0,0,0-5.43-.5l-2,2.2-.79-4a18.52,18.52,0,0,1-5,2.79l-2.07.76.18-7.86a55.16,55.16,0,0,1-6.58,5.92l-5,3.83,2.77-5.68a22.36,22.36,0,0,0,1.48-4.25c-.39.88-.84,2-1.35,3.29a5.19,5.19,0,0,1-6,3.39,5.37,5.37,0,0,1-2.53-1.34,7.48,7.48,0,0,1-1.73-2.57l-3.18,6.26-1.2-3.21a146.47,146.47,0,0,0-6.85-15.57l-2.93,12.46a4.56,4.56,0,0,1-2.63,3.27,2.31,2.31,0,0,1-2.32-.53l-.44-.4-.34-5.37-7.94,9.18-4.75-13.35a42.38,42.38,0,0,1-5.17,12l-1.14,1.81-4.26-5.49a14.21,14.21,0,0,0-1.15,2.77l-1.22,4.2-1.61-4.07a90.56,90.56,0,0,1-3.11-9.3,33.24,33.24,0,0,1-3.59,8.28l-1.73,2.84-1.76-5.68a17.89,17.89,0,0,1-7.36,3.93l-2,.51.09-2c.13-3,.19-6,.2-9a36.57,36.57,0,0,1-7,9.36l-1.85,1.79-1.8-6.93L138.6,173,137,167.57a25.91,25.91,0,0,0-4.52-8.76c3,8.57,5.32,20.29,5.87,23.18Z" transform="translate(-122.37 -137.43)"/></svg>