<svg id="Calque_1" data-name="Calque 1" xmlns="http://www.w3.org/2000/svg" viewBox="0 0 313.72 128.75"><defs><style>.cls-1{fill:#ffec3e;}.cls-2{fill:#040404;}.cls-3{fill:#feec3c;}.cls-4{fill:#fffefe;}</style></defs><title>bidule</title><path class="cls-1" d="M200.25,100.59c-.67-.13-1,.45-1.37.77-4.38,3.5-8.74,7-13.11,10.55q-18.28,14.73-36.56,29.47c-1.88,1.52-1.66.82-1.33,3.36.27,2,.57,4,.83,6,.08.58-.09.8-.63.91s-.85.13-1.28.19Q125.08,155,103.37,158q-29.59,4.15-59.2,8.27a5.6,5.6,0,0,1-2.19.16,4.23,4.23,0,0,1-.41-1.8Q40.4,156.31,39.24,148c-.24-1.67-.21-1.63-1.82-1.4-.74.1-1.47.19-2.21.27a.44.44,0,0,1-.51-.4c-.13-.78-.4-1.56.18-2.3.33-.43.17-.95.11-1.44-.13-1-.27-1.95-.38-2.93a.56.56,0,0,1,.49-.67c.73-.12,1.47-.24,2.2-.32a1.38,1.38,0,0,0,1.16-.78c.39-.77.86-1.5,1.26-2.27a1.41,1.41,0,0,1,1.31-.84l.37,0c.76-.19,1.76.09,2.23-.58s-.08-1.42-.12-2.15a2.38,2.38,0,0,0-.06-.37c-.13-.66,0-1.45-.41-2s-1.27,0-1.92-.08a.62.62,0,0,1-.63-.52,1.89,1.89,0,0,1,.7-2.28c.53-.41,1-1,1.48-1.4a1.29,1.29,0,0,0,.42-1.31c-.29-1.9-.54-3.79-.8-5.69,0-.36-.11-.73-.14-1.1a.55.55,0,0,1,.49-.65q1.56-.24,3.12-.45a.61.61,0,0,1,.75.61c.21,1.4.4,2.81.61,4.21,0,.29,0,.67.38.75a1.15,1.15,0,0,0,1.18-.33c.23-.29.43-.6.63-.91.75-1.13,1.49-2.27,2.25-3.39.41-.6.6-.62,1.16-.09,1.07,1,2.14,2,3.19,3.08a1.1,1.1,0,0,0,1.16.38,3.48,3.48,0,0,1,3.12.7,3,3,0,0,0,1.31.64c.46-.27.14-.65.14-1a3.44,3.44,0,0,0-.12-.91,1.68,1.68,0,0,1,.64-2,5.82,5.82,0,0,0,.79-.78,2.21,2.21,0,0,1,1.6-.8c.3,0,.61-.13.91-.12A2.4,2.4,0,0,0,67.65,115a2,2,0,0,0,.27-1.4c-.15-1-.23-2-.43-2.93a1.75,1.75,0,0,1,.63-1.79c1.68-1.63,3.3-3.33,5-4.94a2.19,2.19,0,0,0,.77-2.28c-.25-1.2-.34-2.44-.54-3.66a1.46,1.46,0,0,1,.4-1.35c1.44-1.47,1-1.44.85-3.15a10,10,0,0,0-.16-1.1,4.15,4.15,0,0,1,.73-4,2.06,2.06,0,0,0,.35-1.75c-.39-2.62-.75-5.25-1.11-7.88-.09-.6-.17-1.21-.26-1.82.75-.23,1.28.17,1.85.32a1.23,1.23,0,0,0,1.76-1.16c0-.31,0-.62,0-.93l.15-12.76a1,1,0,0,1,.38-.93c.14.4.27.76.39,1.12s.25.69.36,1q1.77,5.64,3.51,11.3A2.71,2.71,0,0,0,83,76a1.16,1.16,0,0,0,1.77.21c.53-.38.86-1,1.59-1.17.61.56.45,1.35.55,2,.4,2.56.77,5.13,1.08,7.7a2.37,2.37,0,0,0,1.25,2.1,10.59,10.59,0,0,1,.91.63,1.39,1.39,0,0,1,.63,1.07c.15,1.1.34,2.19.46,3.29A1.29,1.29,0,0,0,92,93a3.48,3.48,0,0,1,2.29,3.58c0,1,.3,2.08.4,3.12a1.82,1.82,0,0,0,.92,1.48c1.65,1.09,3.25,2.24,4.91,3.31a2,2,0,0,1,1,1.65,11.34,11.34,0,0,0,.25,1.83c.1.44-.09,1.16.58,1.2.83,0,1.78.16,2.28-.79a1.67,1.67,0,0,0,.31-1,3.33,3.33,0,0,1,.85-2.91,4.17,4.17,0,0,0,.64-3.13c-.6-5.33-1.15-10.67-1.68-16a2.52,2.52,0,0,0-1.11-2c-1.67-1.19-1.75-1.85-.43-3.44a2.47,2.47,0,0,0,.64-2.37,2.47,2.47,0,0,1,.08-1.63,7.55,7.55,0,0,0,.23-3.83,2.09,2.09,0,0,0-1.06-1.83,2.27,2.27,0,0,1-1.34-2A1.51,1.51,0,0,0,101,67a6.56,6.56,0,0,1-.86-.7.71.71,0,0,1-.16-.85.74.74,0,0,1,.76-.42,3.21,3.21,0,0,1,2.5,1.38,11.68,11.68,0,0,0,1,1.35.7.7,0,0,0,1.21-.15c.14-.2.21-.45.35-.65a1,1,0,0,1,1.28-.39,1.08,1.08,0,0,1,.59,1.23,11.57,11.57,0,0,1-.62,1.34,4.7,4.7,0,0,0-.65,2.1,3.88,3.88,0,0,0,1.25,3,3.85,3.85,0,0,1,1.45,2.88,2.18,2.18,0,0,0,.76,1.43,12.27,12.27,0,0,1,1.24,1.36,1.31,1.31,0,0,1,0,2,3.58,3.58,0,0,0-.79,3.56c1.05,5.27,2,10.54,3,15.82a2.16,2.16,0,0,0,1.15,1.76,19.31,19.31,0,0,1,1.74,1.07,1,1,0,0,0,1.19-.05,1,1,0,0,0,.47-1.09c-.26-1.9-.52-3.79-.79-5.69-.07-.49-.13-1-.2-1.46a.91.91,0,0,1,.24-.85l2.21-2a.85.85,0,0,1,.33-.16c.34-.11.81-.12,1-.35.34-.4.08-1,0-1.43-.19-1.47-.38-2.94-.62-4.4a2.1,2.1,0,0,1,.41-1.55,1.39,1.39,0,0,1,1.2-.73,4.52,4.52,0,0,0,3.28-1.45,1.34,1.34,0,0,1,1.68-.21c1.06.49,2.14,1,3.23,1.37a1.43,1.43,0,0,1,1,1.36c.19,1.6.46,3.18.65,4.77a2,2,0,0,0,1,1.82,1.86,1.86,0,0,1,1.05,1.81,5.24,5.24,0,0,0,1.8,3.89c.26.26.47.58.71.85.63.71.73.72,1.5.1.19-.15.37-.32.56-.48a.85.85,0,0,1,1.17,0c.65.47,1.31.92,1.95,1.4a.8.8,0,0,0,1.15,0c1-.85,2.13-1.67,3.2-2.51s1.91-1.56,2.91-2.28a6.81,6.81,0,0,0,2.25-2.86c2.07-4.61,4.18-9.21,6.27-13.81a17.94,17.94,0,0,0,.75-1.68,1.91,1.91,0,0,1,1.62-1.31c1.81-.39,3.61-.84,5.41-1.22,3.86-.83,7.72-1.66,11.59-2.45a5.2,5.2,0,0,0,2.29-1.1L203,50.69a2.31,2.31,0,0,1,.29-.24,1.11,1.11,0,0,0,.49-1.54,7.35,7.35,0,0,1-.53-3.44,7.82,7.82,0,0,1,4.47-6.77,7.91,7.91,0,0,1,8.11.41,7,7,0,0,1,1.74,1.64Q225.24,50.34,233,59.9l5.91,7.35c.27.34.51.69.76,1a5.28,5.28,0,0,1-1.5,1.41q-9.84,8-19.71,15.91l-.43.34c-1.19,1-1.24,1.36-.29,2.52a.74.74,0,0,0,.62.35c1-.09,1.4.64,1.78,1.34a8.66,8.66,0,0,1,.42,1.15,8.51,8.51,0,0,0,2.12-.2c.74-.09,1.47-.21,2.19-.34a.44.44,0,0,0,.36-.55c-.08-.73-.19-1.47-.27-2.2s0-.88.74-1c1.71-.25,3.42-.48,5.13-.72l.73-.11c2.45-.39,2.06,0,3.42-2,.42-.65.61-.65,1.17-.21.24.2.45.43.7.61.49.34.78,1,1.51.94.9-.12,1.87,0,2.58-.8.17-.18.38-.31.56-.49A1.15,1.15,0,0,1,243,84a1.91,1.91,0,0,0,.88.22,1.36,1.36,0,0,0,1.36-.76c1-1.87.88-1.49,2.89-1.8s3.9-.6,5.86-.81a2.89,2.89,0,0,0,2.28-1.29c.78-1.11,1.68-2.13,2.55-3.18.4-.47.68-.56,1.09-.17a3.51,3.51,0,0,0,3.59.81,5.17,5.17,0,0,1,.55-.07c.64,0,.73,0,.89.64.06.24.08.49.15.72a.44.44,0,0,0,.54.37c.69-.12,1.18,0,1.27.83,0,.37.38.45.71.41.91-.12,1.84-.22,2.75-.37a1.22,1.22,0,0,1,1.27.52c.49.64,1,1.27,1.53,1.86a3.49,3.49,0,0,1,1.09,2.27c0,.66.26.81,1,.71,2.07-.27,4.15-.57,6.2-.86.22-1.54,1.32-2.41,2.11-3.57a6.49,6.49,0,0,1,2.88,2.72c2.34-.11,2-.19,1.79-2.12a2.35,2.35,0,0,0-.05-.37,3.58,3.58,0,0,1,.95-3.55c.68,0,1.09.55,1.61.85s.79.68,1.31.63c.77-.06.93.39,1,1a.53.53,0,0,0,.65.48c1.53-.2,3.06-.42,4.58-.65a.48.48,0,0,0,.41-.53c0-.49-.1-1-.16-1.47q-.84-6-1.67-11.91t-1.67-11.91c0-.43-.13-.86-.17-1.29-.13-1.41.16-1.6,1.55-1,.69.29.75.28,1.22-.32.11-.14.23-.29.33-.44.45-.68.52-1.28-.07-1.82-.88-.78-.67-1.79-.79-2.74a1.1,1.1,0,0,1,.3-.65,11.35,11.35,0,0,0,1.59-2.69,1.32,1.32,0,0,1,2.24-.49,17.12,17.12,0,0,0,2.65,2,1.5,1.5,0,0,1,.8,1.16,3.89,3.89,0,0,1-.26,2.51c-.42.81-.27,1.06.48,1.5l.49.26a1,1,0,0,0,1.17-.05c1.39-.95,1.66-.82,1.9.88,1.31,9.28,2.59,18.57,3.91,27.86.36,2.58-.09,2,2.4,2.8,3.28,1.07,6.57,2.09,9.86,3.12,1.05.33,1.05.31,1.69-.48.46-.57.73-1.48,1.43-1.62a5.41,5.41,0,0,1,2.14.41l4.82,1.25a1.19,1.19,0,0,1,1,1.13c.22,1.84.5,3.67.77,5.5.13.88.29,1,1.22,1a1.2,1.2,0,0,0,1.16-.75c.49-1,1-2,1.5-2.94.42-.13.58.16.76.38,1.46,1.75,2.9,3.51,4.33,5.23-.11.19-.14.35-.21.37-1.28.37-1.29.37-1.14,1.54.13,1,.28,2,.42,2.93.07.49.32.79.87.72l.36,0a.53.53,0,0,1,.65.48c0,.25.09.49.12.73.07.68.06.75-.74,1-.51.16-.7.39-.62.91.24,1.71.45,3.43.69,5.14l2.1,14.84c.05.37.11.73.14,1.1.06.6-.05.73-.68.86-.18,0-.37.06-.55.09l-.92.13-86,12-2,.25c-.23-.42-.39-.93-1.07-.72-.35.1-.73.13-1.09.21-1.87.4-3.73.81-5.6,1.19-1.39.28-1.45.24-1.88-1-.66-1.92-1.3-3.85-1.95-5.77-.23-.7-.49-1.4-.69-2.11s-.1-.89.57-1.1c1.46-.47,2.93-.92,4.4-1.38l3.88-1.22a.6.6,0,0,0,.43-.85c-.29-.94-.53-1.9-.83-2.84-1.4-4.53-2.82-9-4.22-13.58-1.65-5.35-3.28-10.71-4.93-16.07-.23-.75-.46-.87-1.23-.63l-11.64,3.62c-3.36,1-6.72,2-10.06,3.11a2.19,2.19,0,0,1-2.35-.45,12.23,12.23,0,0,0-10.73-2.65,5.74,5.74,0,0,0-2.64,1.23c-1.42,1.18-2.86,2.35-4.31,3.49a5.68,5.68,0,0,0-1.45,1.64c-.48-.29-.49-.29-.52.2Zm-84.91,31.66c.16-.11.36-.23.55-.38,1.2-1,2.41-1.92,3.6-2.89l21.3-17.15c4.17-3.37,8.32-6.77,12.54-10.07A7.08,7.08,0,0,0,156.08,98a5.23,5.23,0,0,1,2-2.75c5.69-4.52,11.37-9.07,17-13.68a8.22,8.22,0,0,1,4.41-2.07,6,6,0,0,0,3.17-1.36q17.6-14.25,35.24-28.42a11.27,11.27,0,0,0,1-.84.58.58,0,0,0,.12-.49c-.28-.88-.94-1.11-1.61-.59-.44.34-.87.69-1.3,1q-16.9,13.62-33.81,27.26a7.64,7.64,0,0,1-3.57,1.78,8.9,8.9,0,0,0-4.24,2.08Q165.83,87,157.06,94a9,9,0,0,0-3.22,4.15,4.61,4.61,0,0,1-1.7,2.13c-2.75,2.18-5.47,4.4-8.2,6.6l-28.36,22.84c-.38.31-.78.6-1.14.93a.53.53,0,0,0-.1.8c.21.23.39.48.6.7C115,132.18,115.16,132.19,115.34,132.25ZM309.19,97.13a7.48,7.48,0,1,0,6.4-8.51A7.42,7.42,0,0,0,309.19,97.13Zm-121.25,6.4c-1.68-2.08-3.29-3.94-4.73-5.92a2.36,2.36,0,0,0-3-1,8.89,8.89,0,0,0-.86.32,14.31,14.31,0,0,0-5.53,4.46,9.45,9.45,0,0,0-.68,1.09,1.82,1.82,0,0,0,.24,2.34c1.59,1.86,3.1,3.81,4.64,5.72.15.19.31.37.49.57ZM91.57,133.06h0c-.26-1.89-.53-3.78-.79-5.67-.06-.46-.32-.62-.76-.56l-4.57.64c-.69.11-.77.22-.66,1,.39,2.87.79,5.73,1.19,8.6.11.79.23,1.58.34,2.38a.59.59,0,0,0,.76.57c1.53-.21,3.05-.41,4.57-.64.67-.11.77-.25.67-1Q91.95,135.71,91.57,133.06Zm-2.9-17h0c-.13-1-.26-1.95-.41-2.92a11.24,11.24,0,0,0-.28-1.64,2.48,2.48,0,0,0-4.86.55,7.83,7.83,0,0,0,0,1.28q.48,3.48,1,6.94a5.9,5.9,0,0,0,.15.73.48.48,0,0,0,.54.38q1.92-.24,3.84-.51a.62.62,0,0,0,.56-.79C89,118.78,88.85,117.44,88.67,116.1Zm77.18-7a2.68,2.68,0,0,0,.76,1.42c.89,1.09,1.76,2.21,2.69,3.28a11.7,11.7,0,0,0,2.42,2.69,25.14,25.14,0,0,0,2.92-2.21l.15-.12c.42-.39.45-.57,0-1.08-1.53-1.92-3.08-3.84-4.62-5.75a2.56,2.56,0,0,0-.52-.52,2.24,2.24,0,0,0-2.59-.21A2.45,2.45,0,0,0,165.85,109.08ZM161.26,125l-5.08-6.36a3.26,3.26,0,0,0-.52-.53,2.35,2.35,0,0,0-3.52.64,2.21,2.21,0,0,0,.16,2.74l4.89,6c.22.27.49.39.79.15C159,126.83,160.07,126,161.26,125ZM147.4,136.16a4.7,4.7,0,0,0-.31-.58q-2.24-2.82-4.5-5.61a4.5,4.5,0,0,0-.62-.69,2.41,2.41,0,0,0-3.8,1,2.25,2.25,0,0,0,.42,2.41c.9,1.09,1.79,2.19,2.68,3.29.74.9,1.47,1.82,2.22,2.72a.44.44,0,0,0,.64.12C145.24,138,146.35,137.09,147.4,136.16ZM133.6,147c-1.63-2-3.27-4.11-4.93-6.17a2.79,2.79,0,0,0-.37-.4,2.41,2.41,0,0,0-3.94,1.3A2.39,2.39,0,0,0,125,144c1,1.24,2,2.51,3,3.72A8.86,8.86,0,0,0,130.1,150a12.38,12.38,0,0,0,2.49-1.83A2.09,2.09,0,0,0,133.6,147Zm11.3-21.12a2.39,2.39,0,0,0,.45,1.13l4.88,6a.59.59,0,0,0,1,.12c.85-.7,1.72-1.38,2.57-2.09.57-.47.57-.53.06-1.18q-2.19-2.73-4.39-5.45a4.44,4.44,0,0,0-.76-.8,2.34,2.34,0,0,0-2.61-.13A2.39,2.39,0,0,0,144.9,125.9Zm31.88-32.38-3.07-3.82a1.64,1.64,0,0,0-1.48-.55,5.61,5.61,0,0,0-4.44,3.45,1.65,1.65,0,0,0,.06,1.6c.92,1.23,1.89,2.42,2.87,3.61a.48.48,0,0,0,.67,0Zm-36.12,48.1-5.1-6.37a2.2,2.2,0,0,0-.24-.28,2.41,2.41,0,0,0-3.62,3.15c.14.2.31.38.47.57,1.32,1.63,2.63,3.26,4,4.87.26.33.45.74,1,.9Zm27.51-22.39a4.42,4.42,0,0,0-.34-.56l-4.39-5.46a5.59,5.59,0,0,0-.61-.68,2.41,2.41,0,0,0-3.82.92,2.22,2.22,0,0,0,.38,2.41c.89,1.1,1.75,2.23,2.69,3.27s1.44,2.28,2.69,2.94a22.35,22.35,0,0,0,3.31-2.59S168.12,119.37,168.17,119.23ZM210.53,85.3a18.34,18.34,0,0,0,3.39-2.93c-1.66-2.08-3.27-4.1-4.89-6.1a3.5,3.5,0,0,0-.93-.87A2.2,2.2,0,0,0,204.75,77a2.42,2.42,0,0,0,.55,1.89Zm9.34-20.88A2.25,2.25,0,0,0,218.43,68c1.65,2,3.32,4.09,5,6.13.29.36.6.33.94,0,.8-.67,1.61-1.32,2.43-2a.57.57,0,0,0,.11-.93c-1.58-1.95-3.14-3.91-4.72-5.87a4.38,4.38,0,0,0-.66-.63A2.34,2.34,0,0,0,219.87,64.42Zm13.91,2.19a1.56,1.56,0,0,0-.15-.43q-2.4-3-4.81-6a3.14,3.14,0,0,0-.52-.51,2.32,2.32,0,0,0-2.88-.09,2.16,2.16,0,0,0-.47,3c1.67,2.19,3.45,4.3,5.19,6.43a.47.47,0,0,0,.67,0ZM217.29,79.84l.31-.19c.81-.66,1.63-1.31,2.43-2,.48-.41.49-.53.08-1.05-1.53-1.92-3.07-3.83-4.59-5.75a2.7,2.7,0,0,0-1.66-1,2.22,2.22,0,0,0-2.41,3.06,5.48,5.48,0,0,0,.7,1.07c1.43,1.77,2.86,3.52,4.3,5.28a4.1,4.1,0,0,0,.5.52C217,79.83,217.18,79.82,217.29,79.84ZM197.58,95.76l3-2.39a.56.56,0,0,0,.12-.92c-1.55-1.91-3.08-3.83-4.62-5.74a3.79,3.79,0,0,0-.8-.75,2.23,2.23,0,0,0-3.47,1.83,2.47,2.47,0,0,0,.65,1.68ZM191,101.05c1-.81,1.9-1.49,2.75-2.19a9.25,9.25,0,0,0,.68-.7l-5.1-6.39a2.89,2.89,0,0,0-1.22-.8,2.17,2.17,0,0,0-2.83,1.84,2.24,2.24,0,0,0,.49,1.73C187.47,96.64,189.16,98.76,191,101.05Zm16.44-13.23a7.09,7.09,0,0,0-.39-.71c-1.49-1.88-3-3.76-4.5-5.62a3.5,3.5,0,0,0-.94-.86A2.22,2.22,0,0,0,198.28,83a2.61,2.61,0,0,0,.55,1.15c1.6,2,3.19,3.92,4.78,5.87.27.33.57.46.94.16ZM80.77,117.76c-.13-1-.26-2-.41-2.92a6.55,6.55,0,0,0-.26-1.26,2.09,2.09,0,0,0-3.57-.7A1.75,1.75,0,0,0,76,114a10.27,10.27,0,0,0,0,1.47q.38,2.94.81,5.86c.17,1.15.22,1.17,1.44,1,.67-.08,1.35-.17,2-.28.92-.15,1-.24.86-1.23S80.92,118.8,80.77,117.76Zm10.91-1.63h0c.16,1.16.33,2.31.49,3.47a.6.6,0,0,0,.76.57c1-.12,1.94-.25,2.91-.41.56-.09.71-.3.63-.89-.3-2.25-.61-4.5-1-6.75a3.55,3.55,0,0,0-.35-1,2.1,2.1,0,0,0-3.91.5,4.16,4.16,0,0,0,0,1.27C91.36,114,91.53,115,91.68,116.13Zm-15,21.65c.18,1.33.37,2.67.56,4a.57.57,0,0,0,.74.56c1-.14,2.07-.27,3.1-.43.61-.1.72-.24.64-.86-.21-1.65-.4-3.29-.7-4.92-.2-1.13,0-2.33-.69-3.36a22.47,22.47,0,0,0-3.46.38l-.18,0c-.45.06-.61.32-.55.76Zm131.5-88.84c.34-.25.63-.46.92-.69,1.53-1.23,3.06-2.45,4.58-3.69,1.17-.94,1.16-1.29-.1-2.11a4.16,4.16,0,0,0-3.85-.54A4.22,4.22,0,0,0,208.15,48.94Zm-88.74,71.27a2.27,2.27,0,0,0-1-1.13,4.27,4.27,0,0,0-6.09,5.81c.4.61.59.66,1.15.21,1.86-1.49,3.72-3,5.57-4.5A2.88,2.88,0,0,0,119.41,120.21Zm46.49-18.06c-.94-1.18-1.73-2.27-2.63-3.27a2.31,2.31,0,0,0-3.17-.25,2.28,2.28,0,0,0-.52,3.27c.69.94,1.45,1.82,2.19,2.73a.58.58,0,0,0,.94.1ZM138,124.49l-1.23-1.56c-.42-.53-.81-1.09-1.27-1.58a2.35,2.35,0,0,0-3.32-.27,2.31,2.31,0,0,0-.38,3.29c3.27,3.76,1.55,3.86,5.59.74C137.59,125,137.74,124.77,138,124.49Zm20.8-16.8-1.73-2.21c-.19-.24-.37-.49-.57-.72a3.26,3.26,0,0,0-.53-.52,2.39,2.39,0,0,0-3.05.14,2.31,2.31,0,0,0-.43,3c.7,1,1.51,1.94,2.29,2.89.2.25.5.42.8.17A24.61,24.61,0,0,0,158.82,107.69Zm-13.91,11.36-2.44-3.11a2.07,2.07,0,0,0-.4-.38,2.39,2.39,0,0,0-3.49,3.19c.72,1,1.53,1.93,2.32,2.87a.51.51,0,0,0,.8,0C142.74,120.8,143.78,120,144.91,119.05Zm-13.86,10.88a1.46,1.46,0,0,0-.16-.3c-.68-.87-1.36-1.74-2.07-2.58a2.81,2.81,0,0,0-.86-.67,2.36,2.36,0,0,0-2.71.45,2.22,2.22,0,0,0-.4,2.86c.74,1.05,1.59,2,2.4,3a.53.53,0,0,0,.81,0c.95-.77,1.91-1.54,2.85-2.32A.43.43,0,0,0,131.05,129.93Zm-6.67,5.79-2.07-2.6a5.7,5.7,0,0,0-.59-.71,2.32,2.32,0,0,0-3.18-.2,2.37,2.37,0,0,0-.45,3.31c.61.85,1.3,1.64,2,2.46a1.34,1.34,0,0,0,.84.57Zm27.46-22.24c-.92-1.15-1.79-2.25-2.67-3.34a1.63,1.63,0,0,0-.29-.23,2.37,2.37,0,0,0-3,.2,2.31,2.31,0,0,0-.37,3c.68,1,1.44,1.84,2.18,2.74.38.46.63.48,1.08.12C149.74,115.19,150.73,114.37,151.84,113.48ZM324.38,115h0c.08.54.14,1.09.23,1.63.44,2.8-.12,2.44,2.91,2l.18,0a.54.54,0,0,0,.45-.67c-.3-2.18-.57-4.37-.92-6.54a1.61,1.61,0,0,0-2-1.41,1.58,1.58,0,0,0-1.29,1.9C324.06,112.91,324.23,113.94,324.38,115Zm-5.93.91h0c.16,1.1.31,2.2.46,3.29.06.43.25.68.72.62l2-.29a.6.6,0,0,0,.58-.76l-.87-6.22a2.38,2.38,0,0,0-.06-.37,1.83,1.83,0,0,0-2-1.3,1.64,1.64,0,0,0-1.3,1.92C318.13,113.81,318.31,114.85,318.45,115.88ZM224.5,55c-.86-1.08-1.6-2-2.31-2.9a3,3,0,0,0-1.11-.94,2.17,2.17,0,0,0-2.53.43,2.14,2.14,0,0,0-.35,2.7c.77,1.1,1.66,2.12,2.51,3.16a.45.45,0,0,0,.65.07ZM166.1,81.28a3.17,3.17,0,0,0-3.28-2.64,3.08,3.08,0,0,0-2.66,3.23,3,3,0,0,0,3.35,2.67A3,3,0,0,0,166.1,81.28ZM204.6,71c-.89-1.12-1.71-2.18-2.55-3.22a2.54,2.54,0,0,0-.56-.47,2.26,2.26,0,0,0-2.71.19,2.17,2.17,0,0,0-.43,2.83c.73,1,1.58,2,2.39,3a.54.54,0,0,0,.81.12C202.55,72.64,203.53,71.83,204.6,71Zm6.52-5.36-2-2.44a7.13,7.13,0,0,0-.84-1,2.18,2.18,0,0,0-3.44.57,2.12,2.12,0,0,0,.13,2.42c.76,1,1.62,2,2.44,3,.07.08.22.1.37.17A25.27,25.27,0,0,0,211.12,65.61ZM194.59,79a6.56,6.56,0,0,0,.63-.42c.88-.83,2-1.35,2.7-2.41a22.64,22.64,0,0,0-2.4-3.2,1.77,1.77,0,0,0-.56-.45,2.2,2.2,0,0,0-2.1-.16,2.23,2.23,0,0,0-.86,3.41C192.77,76.82,193.67,77.82,194.59,79Zm-3,2.47c-.9-1.14-1.7-2.29-2.65-3.3a2.17,2.17,0,0,0-3.48.28,2.13,2.13,0,0,0,0,2.58c.75,1,1.61,2,2.44,3,.07.08.21.1.37.17A25.82,25.82,0,0,0,191.64,81.43Zm-6.48,5.32c-1-1.22-1.82-2.36-2.79-3.37a2.18,2.18,0,0,0-3-.17,2.22,2.22,0,0,0-.35,3.12c.64.89,1.34,1.74,2,2.59.44.54.69.57,1.22.15C183.2,88.36,184.09,87.62,185.16,86.75ZM214.57,63c.94-.76,1.93-1.55,2.91-2.36a.44.44,0,0,0,.11-.64c-.8-1-1.54-2.07-2.43-3a2.16,2.16,0,0,0-3.37.1,2.19,2.19,0,0,0-.1,2.72c.75,1,1.61,2,2.43,3C214.19,62.83,214.34,62.85,214.57,63ZM64.26,136.65c-.08-.61-.16-1.22-.25-1.82-.21-1.4-.22-1.4-1.6-1.22-.49.06-1,.13-1.46.22a.61.61,0,0,0-.59.76l.72,5.11c0,.27.19.48.48.47a10.49,10.49,0,0,0,2.89-.44c.35-.8-.06-1.56-.09-2.34A6.26,6.26,0,0,0,64.26,136.65ZM83.67,85.39a6.5,6.5,0,0,0-.86-2.6,2.08,2.08,0,0,0-1.87-1c-.56,0-1.06.81-1.16,1.7a1.37,1.37,0,0,0,0,.19c.14,1.09.25,2.19.44,3.27a2,2,0,0,0,.91,1.33,1.34,1.34,0,0,0,1.39.14,2.09,2.09,0,0,0,1.34-2.18C83.81,86,83.73,85.69,83.67,85.39ZM42.18,141.72h0c0,.12,0,.24,0,.36.46,2.91-.09,2.5,3.06,2.07a.58.58,0,0,0,.18,0,.51.51,0,0,0,.39-.54q-.12-1.19-.3-2.37c-.44-2.89.08-2.45-2.87-2.08a2.29,2.29,0,0,0-.36.07.47.47,0,0,0-.39.53C42,140.39,42.08,141.05,42.18,141.72Zm16.28-5.87a6,6,0,0,0-2.63.2c-.36.08-.46.34-.41.69.1.79.15,1.59.3,2.37.5,2.55-.19,2.25,2.76,1.86.43-.06.66-.29.59-.75C58.87,138.77,58.67,137.31,58.46,135.85ZM303.89,58.12h0l.33,2.36a.56.56,0,0,0,.61.54,6.85,6.85,0,0,0,.91-.11c.63-.11.76-.26.69-.84-.2-1.51-.41-3-.64-4.54a2.73,2.73,0,0,0-.29-.86,1,1,0,0,0-1.09-.49,1,1,0,0,0-.83.85,4,4,0,0,0,0,.91C303.68,56.67,303.79,57.4,303.89,58.12ZM66,146.37c-.06-.36-.1-.73-.16-1.09-.18-1.19-.18-1.2-1.37-1.05l-1.63.23c-.41.06-.69.24-.63.71.15,1.09.31,2.18.47,3.27a.55.55,0,0,0,.64.5,4.41,4.41,0,0,0,.72-.08C66.63,148.47,66.31,148.86,66,146.37ZM301.54,58.58h0c-.11-.79-.21-1.59-.34-2.37a2.84,2.84,0,0,0-.3-.86,1.05,1.05,0,0,0-1.11-.46,1.07,1.07,0,0,0-.76.74,1.24,1.24,0,0,0-.06.54q.34,2.55.72,5.1a.55.55,0,0,0,.63.52c.24,0,.49,0,.73-.09.75-.12.86-.24.79-.94S301.65,59.3,301.54,58.58Zm-220.23,37a4,4,0,0,0,.46,1.6,1.33,1.33,0,0,0,1.33.77,1.37,1.37,0,0,0,1.25-1.16,4.6,4.6,0,0,0-.36-3,3.86,3.86,0,0,0-.49-.77,1.09,1.09,0,0,0-1.92.29A3.8,3.8,0,0,0,81.31,95.53ZM286.7,100c.06.28.11.59.2.88a1.63,1.63,0,0,0,1.79,1.24,1.59,1.59,0,0,0,1.48-1.59,7.53,7.53,0,0,0-.27-2,1.67,1.67,0,0,0-3.27.53C286.62,99.37,286.68,99.67,286.7,100Zm57.37,11.08h0c0-.18,0-.37-.08-.55a1.72,1.72,0,0,0-1.76-1.32,1.77,1.77,0,0,0-1.5,1.63,4.47,4.47,0,0,0,.21,1.45,1.77,1.77,0,0,0,1.91,1.12,1.73,1.73,0,0,0,1.3-1.78A4.85,4.85,0,0,0,344.07,111.08Zm-39.44-41.7h0c-.06-.42-.09-.86-.19-1.27a1,1,0,0,0-.36-.61,1.47,1.47,0,0,0-1.56-.14,1.28,1.28,0,0,0-.83,1.29,19.27,19.27,0,0,0,.29,2,1.19,1.19,0,0,0,1.2.94c1.14.07,1.66-.49,1.56-1.67C304.69,69.75,304.66,69.57,304.63,69.38ZM293.24,90.23a5.75,5.75,0,0,0,.15.72,1.67,1.67,0,0,0,1.36,1.11,1.45,1.45,0,0,0,1.46-.59,2.46,2.46,0,0,0-.24-3,1.63,1.63,0,0,0-2.53.38A2,2,0,0,0,293.24,90.23ZM49.34,150.36c-.08-.55-.15-1.1-.24-1.64a.47.47,0,0,0-.5-.43c-2.19-.07-2.45.21-2.16,2.32.06.42.11.85.18,1.27.13.76.24.87,1,.77C49.9,152.33,49.66,152.63,49.34,150.36Zm5.51-19.8c.2,1.91.21,1.91,2.08,1.6,1-.16,1-.16,1-1.14a4.73,4.73,0,0,0,0-.54c-.37-2.35-.22-2-2.34-1.75-.76.1-.82.2-.77.92C54.75,130,54.81,130.25,54.85,130.56Zm250.41-40a1.72,1.72,0,0,0-.46-3.4,1.87,1.87,0,0,0-1.45,2.06A1.66,1.66,0,0,0,305.26,90.53Z" transform="translate(-34.52 -37.77)"/><path class="cls-2" d="M200.7,100.44a5.68,5.68,0,0,1,1.45-1.64c1.45-1.14,2.89-2.31,4.31-3.49a5.74,5.74,0,0,1,2.64-1.23,12.23,12.23,0,0,1,10.73,2.65,2.19,2.19,0,0,0,2.35.45c3.34-1.07,6.7-2.07,10.06-3.11l11.64-3.62c.77-.24,1-.12,1.23.63,1.65,5.36,3.28,10.72,4.93,16.07,1.4,4.53,2.82,9,4.22,13.58.3.94.54,1.9.83,2.84a.6.6,0,0,1-.43.85l-3.88,1.22c-1.47.46-2.94.91-4.4,1.38-.67.21-.76.39-.57,1.1s.46,1.41.69,2.11c.65,1.92,1.29,3.85,1.95,5.77.43,1.27.49,1.31,1.88,1,1.87-.38,3.73-.79,5.6-1.19.36-.08.74-.11,1.09-.21.68-.21.84.3,1.07.72a6.92,6.92,0,0,0,.13,1.82c.07.75,0,.89-.7,1-1,.15-1.94.27-2.91.41l-7.11,1c-.84.11-.82.08-1.25-.7a6.3,6.3,0,0,0-.93-1.78c-1-2.84-2.34-5.51-3.54-8.26-.53-1.22-.56-1.21-1.88-.83-1.11.33-2.23.66-3.34,1a.61.61,0,0,0-.44.85,8.78,8.78,0,0,0,.33.85c.72,1.69,1.42,3.39,2.17,5.06a7.55,7.55,0,0,0,1.07,2.12c0,.12,0,.24.07.36.23.69.47,1.37.71,2.06-.65.58-1.49.44-2.24.55-3.82.56-7.65,1.08-11.47,1.61-.55-.83-.22-1.87-.73-2.67.17-.45.25-1,.94-.92a5.11,5.11,0,0,0,.55,0l6.82-.41a2.24,2.24,0,0,0,1.23-.25c.14-.35-.06-.61-.19-.87-1-1.93-1.92-3.86-2.91-5.77-.51-1-.57-1-1.75-.7-1.83.53-3.65,1.11-5.47,1.68-1.06.32-2.11.67-3.18,1-.53.16-.76,0-1-.52a5.44,5.44,0,0,1-.19-.52c-.76-2.47-1.5-4.95-2.26-7.42s-1.44-4.71-2.17-7.06c-.21-.67-.44-.83-1.08-.68a35.93,35.93,0,0,1-4.39.61c-.28-.3-.67-.23-1-.3a12.58,12.58,0,0,1-9.88-16.86c.12-.35.56-.7.17-1.15l-.07,0A.35.35,0,0,0,200.7,100.44Zm1.51,7.09a9.56,9.56,0,1,0,8.2-10.83A9.5,9.5,0,0,0,202.21,107.53Zm28.51-2.27.78-.26c2.79-1,5.59-1.87,8.37-2.86,1-.35,2-.39,2.82-1.18-.32-1-.63-2-1-3-.2-.57-.36-.62-1-.33q-5.51,2.56-11,5.17a1.21,1.21,0,0,0-.47.27c-.11.12-.22.35-.17.47.21.51.47,1,.73,1.49C230,105.3,230.17,105.4,230.72,105.26Z" transform="translate(-34.52 -37.77)"/><path class="cls-3" d="M211,118.9a35.93,35.93,0,0,0,4.39-.61c.64-.15.87,0,1.08.68q1.09,3.52,2.17,7.06c.76,2.47,1.5,4.95,2.26,7.42a5.44,5.44,0,0,0,.19.52c.23.53.46.68,1,.52,1.07-.31,2.12-.66,3.18-1,1.82-.57,3.64-1.15,5.47-1.68,1.18-.34,1.24-.3,1.75.7,1,1.91,1.95,3.84,2.91,5.77.13.26.33.52.19.87a2.24,2.24,0,0,1-1.23.25l-6.82.41a5.11,5.11,0,0,1-.55,0c-.69-.07-.77.47-.94.92l-10.79,1.55a5.28,5.28,0,0,1-.55,0,.49.49,0,0,1-.52-.42c-.06-.3-.11-.61-.15-.91q-1.5-10.62-3-21.24C211,119.52,211,119.21,211,118.9Z" transform="translate(-34.52 -37.77)"/><path class="cls-3" d="M239.69,138.89a7.55,7.55,0,0,1-1.07-2.12c-.75-1.67-1.45-3.37-2.17-5.06a8.78,8.78,0,0,1-.33-.85.61.61,0,0,1,.44-.85c1.11-.35,2.23-.68,3.34-1,1.32-.38,1.35-.39,1.88.83,1.2,2.75,2.55,5.42,3.54,8.26Z" transform="translate(-34.52 -37.77)"/><path class="cls-4" d="M202.21,107.53a9.56,9.56,0,1,1,10.7,8.14A9.5,9.5,0,0,1,202.21,107.53Zm5.76,3.35a3.13,3.13,0,0,0-.88-6.19,3.15,3.15,0,0,0-2.71,3.55A3.11,3.11,0,0,0,208,110.88Z" transform="translate(-34.52 -37.77)"/><path class="cls-3" d="M316.06,92.75a3.34,3.34,0,0,1,3.63,2.94,3.29,3.29,0,0,1-3,3.57,3.24,3.24,0,0,1-3.5-2.84A3.28,3.28,0,0,1,316.06,92.75Z" transform="translate(-34.52 -37.77)"/><path class="cls-2" d="M208,110.88a3.11,3.11,0,0,1-3.59-2.64,3.15,3.15,0,0,1,2.71-3.55,3.13,3.13,0,0,1,.88,6.19Z" transform="translate(-34.52 -37.77)"/></svg>